<?xml version="1.0" encoding="utf-8"?>
<!-- Generator: Adobe Illustrator 27.5.0, SVG Export Plug-In . SVG Version: 6.00 Build 0)  -->
<svg version="1.1" xmlns="http://www.w3.org/2000/svg" xmlns:xlink="http://www.w3.org/1999/xlink" x="0px" y="0px"
	 viewBox="0 0 3710 3710" style="enable-background:new 0 0 3710 3710;" xml:space="preserve">
<g id="Background">
	<g>
		<g>
			<rect style="fill:#FFFFFF;" width="3710" height="3710"/>
		</g>
	</g>
</g>
<g id="Illustration">
	<g>
		<g style="opacity:0.64;">
			<path style="fill:#FFFFFF;" d="M751.428,2509.232c-0.415,0-0.797-0.271-0.92-0.689c-0.149-0.506-0.285-1.022-0.405-1.535
				c-0.121-0.516,0.2-1.031,0.716-1.152c0.518-0.12,1.032,0.2,1.152,0.716c0.112,0.479,0.239,0.96,0.377,1.431
				c0.149,0.508-0.142,1.041-0.65,1.19C751.609,2509.219,751.517,2509.232,751.428,2509.232z"/>
			<path style="fill:#FFFFFF;" d="M750.335,2502.517c-0.513,0-0.938-0.406-0.958-0.923c-0.014-0.359-0.021-0.72-0.021-1.083
				c0-0.664,0.023-1.338,0.07-2.003l0.02-0.277c0.043-0.528,0.508-0.921,1.033-0.879c0.528,0.042,0.922,0.505,0.879,1.032
				l-0.019,0.257c-0.043,0.621-0.065,1.25-0.065,1.871c0,0.338,0.007,0.675,0.019,1.01c0.02,0.529-0.393,0.975-0.922,0.994
				C750.359,2502.517,750.347,2502.517,750.335,2502.517z M751.312,2494.069c-0.084,0-0.17-0.011-0.255-0.034
				c-0.511-0.141-0.811-0.668-0.67-1.179c0.297-1.08,0.662-2.152,1.084-3.187c0.2-0.491,0.759-0.726,1.25-0.526
				c0.491,0.2,0.726,0.76,0.526,1.25c-0.393,0.965-0.734,1.965-1.011,2.971C752.119,2493.79,751.733,2494.069,751.312,2494.069z
				 M754.811,2486.317c-0.18,0-0.362-0.051-0.524-0.156c-0.443-0.29-0.568-0.885-0.278-1.328c0.612-0.935,1.286-1.844,2.004-2.702
				c0.34-0.406,0.945-0.46,1.351-0.12c0.406,0.34,0.46,0.945,0.12,1.351c-0.669,0.8-1.298,1.648-1.869,2.521
				C755.43,2486.165,755.124,2486.317,754.811,2486.317z M760.505,2479.999c-0.278,0-0.554-0.12-0.744-0.353
				c-0.335-0.411-0.273-1.015,0.137-1.349c0.867-0.707,1.784-1.369,2.726-1.968c0.448-0.285,1.04-0.153,1.324,0.294
				c0.285,0.447,0.153,1.04-0.294,1.324c-0.879,0.56-1.735,1.178-2.544,1.837C760.932,2479.928,760.718,2479.999,760.505,2479.999z
				 M767.84,2475.699c-0.382,0-0.744-0.23-0.893-0.607c-0.194-0.493,0.047-1.05,0.54-1.244c1.04-0.41,2.116-0.763,3.196-1.047
				c0.512-0.135,1.037,0.171,1.172,0.683c0.135,0.512-0.171,1.037-0.683,1.172c-1.008,0.266-2.011,0.594-2.981,0.977
				C768.076,2475.677,767.957,2475.699,767.84,2475.699z M787.714,2475.544c-0.112,0-0.226-0.02-0.337-0.061
				c-0.976-0.366-1.984-0.678-2.997-0.927c-0.514-0.127-0.829-0.646-0.703-1.16c0.127-0.514,0.645-0.829,1.16-0.702
				c1.086,0.267,2.168,0.601,3.214,0.994c0.496,0.186,0.747,0.739,0.561,1.235C788.468,2475.306,788.102,2475.544,787.714,2475.544z
				 M776.135,2473.839c-0.501,0-0.923-0.389-0.956-0.897c-0.035-0.529,0.365-0.985,0.894-1.02c1.11-0.073,2.249-0.081,3.363-0.023
				c0.529,0.028,0.935,0.479,0.908,1.008c-0.027,0.529-0.469,0.942-1.007,0.908c-1.04-0.054-2.103-0.047-3.138,0.021
				C776.177,2473.838,776.156,2473.839,776.135,2473.839z"/>
			<path style="fill:#FFFFFF;" d="M793.752,2478.715c-0.189,0-0.38-0.055-0.547-0.171c-0.404-0.281-0.82-0.554-1.238-0.811
				c-0.451-0.278-0.591-0.869-0.313-1.32c0.278-0.451,0.869-0.591,1.32-0.313c0.448,0.276,0.894,0.568,1.327,0.869
				c0.435,0.302,0.542,0.9,0.24,1.335C794.354,2478.571,794.055,2478.715,793.752,2478.715z"/>
		</g>
		<g style="opacity:0.64;">
			<path style="fill:#FFFFFF;" d="M805.352,2497.435c-0.469,0-0.879-0.344-0.948-0.822c-0.07-0.485-0.156-0.976-0.254-1.458
				c-0.105-0.519,0.23-1.025,0.749-1.131c0.519-0.105,1.025,0.23,1.131,0.749c0.105,0.517,0.196,1.043,0.272,1.564
				c0.076,0.524-0.287,1.011-0.811,1.087C805.444,2497.431,805.397,2497.435,805.352,2497.435z"/>
			<path style="fill:#FFFFFF;" d="M778.008,2529.104c-0.666,0-1.34-0.023-2.005-0.069c-0.347-0.024-0.693-0.054-1.036-0.09
				c-0.527-0.055-0.909-0.527-0.854-1.054c0.055-0.526,0.529-0.909,1.054-0.854c0.321,0.034,0.644,0.062,0.968,0.084
				c0.621,0.043,1.251,0.065,1.871,0.065l0.248-0.001c0.003,0,0.006,0,0.008,0c0.526,0,0.954,0.424,0.959,0.95
				c0.005,0.53-0.421,0.963-0.951,0.968L778.008,2529.104z M783.424,2528.568c-0.448,0-0.848-0.315-0.94-0.771
				c-0.104-0.519,0.233-1.024,0.752-1.128c1.005-0.201,2.01-0.464,2.985-0.781c0.504-0.164,1.045,0.112,1.208,0.616
				c0.164,0.504-0.112,1.045-0.616,1.208c-1.046,0.34-2.123,0.622-3.201,0.837C783.55,2528.562,783.487,2528.568,783.424,2528.568z
				 M769.976,2527.927c-0.091,0-0.185-0.013-0.277-0.041c-1.053-0.317-2.099-0.7-3.109-1.138c-0.486-0.211-0.709-0.775-0.498-1.261
				c0.211-0.486,0.775-0.71,1.261-0.499c0.941,0.408,1.917,0.765,2.899,1.061c0.507,0.153,0.795,0.688,0.642,1.195
				C770.769,2527.659,770.388,2527.927,769.976,2527.927z M791.283,2525.697c-0.339,0-0.667-0.18-0.841-0.497
				c-0.255-0.464-0.086-1.047,0.379-1.302c0.898-0.493,1.777-1.045,2.614-1.64c0.432-0.307,1.03-0.206,1.338,0.226
				c0.307,0.432,0.206,1.031-0.226,1.337c-0.897,0.637-1.84,1.229-2.802,1.758C791.598,2525.659,791.44,2525.697,791.283,2525.697z
				 M797.923,2520.608c-0.239,0-0.479-0.089-0.665-0.268c-0.382-0.367-0.393-0.975-0.026-1.356c0.711-0.739,1.387-1.528,2.009-2.345
				c0.321-0.421,0.922-0.503,1.344-0.182c0.421,0.321,0.503,0.923,0.182,1.344c-0.666,0.875-1.39,1.72-2.153,2.512
				C798.426,2520.51,798.175,2520.608,797.923,2520.608z M802.746,2513.772c-0.144,0-0.29-0.032-0.427-0.101
				c-0.474-0.236-0.667-0.812-0.431-1.286c0.458-0.919,0.866-1.874,1.214-2.839c0.179-0.498,0.729-0.758,1.227-0.577
				c0.498,0.18,0.757,0.729,0.578,1.227c-0.373,1.035-0.811,2.06-1.302,3.045C803.438,2513.577,803.099,2513.772,802.746,2513.772z
				 M805.296,2505.802c-0.05,0-0.1-0.004-0.151-0.012c-0.523-0.083-0.88-0.574-0.797-1.097c0.123-0.779,0.214-1.576,0.268-2.367
				c0.016-0.236,0.03-0.471,0.04-0.705c0.023-0.529,0.472-0.941,1-0.917c0.529,0.023,0.94,0.47,0.917,1
				c-0.011,0.251-0.025,0.503-0.042,0.755c-0.059,0.848-0.155,1.701-0.288,2.535
				C806.167,2505.465,805.759,2505.802,805.296,2505.802z"/>
			<path style="fill:#FFFFFF;" d="M762.409,2524.312c-0.186,0-0.374-0.054-0.54-0.167c-0.434-0.296-0.867-0.609-1.285-0.93
				c-0.42-0.322-0.5-0.924-0.178-1.345c0.322-0.42,0.924-0.5,1.345-0.178c0.391,0.3,0.794,0.592,1.199,0.868
				c0.438,0.298,0.55,0.895,0.252,1.333C763.017,2524.165,762.715,2524.312,762.409,2524.312z"/>
		</g>
		<g>
			<path style="opacity:0.5;fill:#FFFFFF;" d="M763.041,2515.597c0.089,0.11,0.239,0.151,0.372,0.102l3.792-1.395
				c1.495,1.151,3.185,2.073,5.021,2.704l0.925,3.931c0.033,0.138,0.149,0.24,0.29,0.254l4.822,0.488
				c0.141,0.014,0.275-0.062,0.335-0.191l1.694-3.665c1.926-0.25,3.766-0.814,5.461-1.642l3.436,2.127
				c0.12,0.074,0.275,0.064,0.385-0.025l3.755-3.064c0.11-0.09,0.151-0.239,0.102-0.372l-1.395-3.792
				c1.151-1.495,2.073-3.185,2.704-5.021l3.931-0.925c0.138-0.032,0.24-0.149,0.254-0.29l0.489-4.822
				c0.014-0.141-0.062-0.275-0.191-0.335l-3.665-1.694c-0.25-1.926-0.814-3.766-1.642-5.461l2.127-3.436
				c0.074-0.12,0.064-0.275-0.025-0.385l-3.064-3.755c-0.089-0.11-0.239-0.151-0.372-0.102l-3.792,1.395
				c-1.495-1.151-3.184-2.073-5.021-2.704l-0.925-3.931c-0.033-0.138-0.149-0.24-0.29-0.254l-4.822-0.489
				c-0.141-0.014-0.275,0.063-0.335,0.191l-1.695,3.665c-1.926,0.25-3.766,0.814-5.461,1.642l-3.436-2.127
				c-0.12-0.074-0.275-0.064-0.385,0.025l-3.755,3.064c-0.11,0.09-0.151,0.239-0.102,0.372l1.395,3.792
				c-1.151,1.495-2.073,3.184-2.704,5.021l-3.931,0.925c-0.138,0.032-0.24,0.149-0.254,0.29l-0.488,4.822
				c-0.014,0.141,0.062,0.275,0.191,0.335l3.665,1.695c0.25,1.926,0.814,3.765,1.642,5.461l-2.127,3.436
				c-0.074,0.12-0.064,0.275,0.025,0.385L763.041,2515.597z"/>
			<path style="opacity:0.56;fill:#FFFFFF;" d="M777.993,2505.72c-2.659,0-4.994-1.952-5.393-4.66
				c-0.212-1.441,0.149-2.879,1.018-4.049c0.869-1.169,2.142-1.93,3.583-2.143c1.443-0.212,2.879,0.149,4.049,1.018
				c1.169,0.869,1.93,2.141,2.143,3.583c0.438,2.976-1.625,5.753-4.601,6.191C778.523,2505.7,778.256,2505.72,777.993,2505.72z
				 M778.003,2497.111c-0.155,0-0.311,0.011-0.466,0.034c-1.72,0.253-2.913,1.859-2.659,3.579c0.254,1.72,1.86,2.913,3.579,2.659
				c0.833-0.123,1.569-0.563,2.071-1.239s0.711-1.507,0.589-2.34c-0.123-0.833-0.563-1.569-1.239-2.071
				C779.327,2497.326,778.675,2497.111,778.003,2497.111z"/>
			<path style="opacity:0.56;fill:#FFFFFF;" d="M778.08,2512.273c-0.406,0-0.814-0.021-1.226-0.062
				c-0.065-0.007-0.131-0.014-0.196-0.021c-0.79-0.093-1.57-0.263-2.321-0.506c-0.162-0.052-0.266-0.203-0.266-0.365
				c0-0.039,0.006-0.079,0.019-0.119c0.065-0.201,0.282-0.312,0.483-0.247c0.761,0.247,1.554,0.413,2.358,0.494h0
				c4.2,0.427,8.103-1.515,10.383-4.737c1.014-1.432,1.706-3.118,1.961-4.962c0.019-0.137,0.036-0.276,0.05-0.416
				c0.039-0.386,0.058-0.77,0.058-1.15c-0.001-5.728-4.353-10.654-10.172-11.243c-6.207-0.629-11.765,3.908-12.394,10.114
				c-0.039,0.383-0.058,0.765-0.058,1.147c0,1.656,0.363,3.293,1.067,4.792c0.025,0.053,0.037,0.108,0.036,0.163
				c0,0.144-0.082,0.282-0.221,0.347c-0.192,0.09-0.42,0.007-0.51-0.184c-0.753-1.602-1.14-3.35-1.14-5.118
				c0-0.408,0.02-0.817,0.062-1.225c0.672-6.626,6.607-11.468,13.235-10.8c6.214,0.63,10.861,5.889,10.862,12.006
				c0,0.406-0.02,0.816-0.062,1.229C789.458,2507.625,784.197,2512.273,778.08,2512.273z"/>
		</g>
	</g>
	<g>
		<linearGradient id="SVGID_1_" gradientUnits="userSpaceOnUse" x1="3393.876" y1="3606.9819" x2="1353.5049" y2="1404.6764">
			<stop  offset="0" style="stop-color:#B37CFF"/>
			<stop  offset="1" style="stop-color:#F895E7"/>
		</linearGradient>
		<path style="opacity:0.3;fill:url(#SVGID_1_);" d="M3109.537,2351.97c-280.362,655.313-1020.427,936.785-1600.279,888.794
			c-158.323-13.104-476.873-39.469-725.6-274.681c-477.662-451.71-404.098-1395.911,53.162-1951.803
			c58.885-71.587,466.483-551.216,1101.647-544.796c465.033,4.701,791.435,267.391,831.124,300.117
			c50.138,41.342,160.722,139.584,260.386,295.438C3264.15,1431.243,3284.735,1942.465,3109.537,2351.97z"/>
		<g>
			
				<linearGradient id="SVGID_00000157988143243474818250000006099816505743698360_" gradientUnits="userSpaceOnUse" x1="110.1113" y1="584.1777" x2="1346.2203" y2="2330.2881" gradientTransform="matrix(0.9743 0.2251 -0.2251 0.9743 364.9597 271.946)">
				<stop  offset="0" style="stop-color:#CB236D"/>
				<stop  offset="1" style="stop-color:#4C246D"/>
			</linearGradient>
			<path style="fill:url(#SVGID_00000157988143243474818250000006099816505743698360_);" d="M1583.913,3040.54
				c0,0-342.672-1146.512-950.003-1747.667c-40.826-40.41-110.157-19.914-122.099,36.275
				C431.962,1704.87,302.606,2838,1583.913,3040.54z"/>
			<path style="opacity:0.5;fill:#FFFFFF;" d="M1463.766,2972.287c2.999,2.61-0.505,7.214-3.826,5.03
				c-122.458-80.515-601.193-483.254-818.273-1328.514c-0.697-2.715,3.281-3.995,4.21-1.35
				C714.34,1842.335,989.63,2559.615,1463.766,2972.287z"/>
		</g>
		<g>
			
				<linearGradient id="SVGID_00000040536795799810291500000014715988409725936568_" gradientUnits="userSpaceOnUse" x1="658.5034" y1="1151.0778" x2="2536.5417" y2="1151.0778" gradientTransform="matrix(0.8757 0.4829 -0.4829 0.8757 115.3429 -89.6455)">
				<stop  offset="0" style="stop-color:#A737D5"/>
				<stop  offset="1" style="stop-color:#EF497A"/>
			</linearGradient>
			<path style="fill:url(#SVGID_00000040536795799810291500000014715988409725936568_);" d="M563.629,470.638
				c-5.004-8.87,5.391-18.4,13.728-12.551c133.073,93.361,599.43,464.248,723.55,1152.052
				c113.564,629.308,90.15,1089.428,74.529,1260.238c-3.09,33.777-41.394,51.759-69.327,32.517
				c-165.555-114.042-612.415-457.623-652.285-867.997C606.18,1544.499,802.439,893.941,563.629,470.638z"/>
		</g>
		<g>
			<g>
				
					<linearGradient id="SVGID_00000025424661510926893040000017531813460188685485_" gradientUnits="userSpaceOnUse" x1="1689.594" y1="4071.4854" x2="2458.8455" y2="527.0957">
					<stop  offset="0" style="stop-color:#B37CFF"/>
					<stop  offset="1" style="stop-color:#F895E7"/>
				</linearGradient>
				<path style="fill:url(#SVGID_00000025424661510926893040000017531813460188685485_);" d="M3112.32,3157.574H1194.062
					c-21.448,0-38.835-17.387-38.835-38.835V752.107c0-21.448,17.387-38.835,38.835-38.835H3112.32
					c21.448,0,38.835,17.387,38.835,38.835V3118.74C3151.155,3140.188,3133.768,3157.574,3112.32,3157.574z"/>
				<path style="opacity:0.86;fill:#FFFFFF;" d="M3051.553,3100.018H1254.829c-21.448,0-38.835-17.387-38.835-38.835V843.387
					c0-21.448,17.387-38.835,38.835-38.835h1796.723c21.448,0,38.835,17.387,38.835,38.835v2217.796
					C3090.387,3082.631,3073,3100.018,3051.553,3100.018z"/>
			</g>
			
				<linearGradient id="SVGID_00000151508618241425258920000018061377154723337357_" gradientUnits="userSpaceOnUse" x1="2318.04" y1="745.9465" x2="2035.947" y2="3934.5781">
				<stop  offset="0" style="stop-color:#53D8FF"/>
				<stop  offset="1" style="stop-color:#3840F7"/>
			</linearGradient>
			<path style="fill:url(#SVGID_00000151508618241425258920000018061377154723337357_);" d="M1592.382,3097.316l93.356-741.972
				c18.819-126.073-18.433-252.799-100.693-341.693h-0.002c-45.737-49.426-74.641-114.734-81.12-185.162
				c-10.116-109.987-8.901-289.692,57.616-508.572c87.95-289.406,351.313-459.574,619.1-409.081
				c130.844,24.67,281.35,74.043,437.314,167.078c88.699,52.91,149.104,152.18,158.638,264.594
				c4.433,52.265,12.64,110.147,27.544,161.578c18.73,64.629,26.841,108.87,30.191,137.583c3.037,26.038-5.789,52.111-23.15,69.358
				l-0.003,0.003c-17.907,17.787-22.358,47.638-10.58,71.017l137.802,238.428l2.788,14.291
				c-7.992,27.207-28.108,61.368-50.548,63.681l-78.558,8.097l2.983,92.571c0.577,17.879-9.649,34.207-24.698,39.413l-18.052,6.244
				l16.474,14.583c13.386,11.851,16.9,33.438,8.268,50.755l-23.25,46.638c-10.533,21.125-9.024,47.057,3.806,65.463
				c21.205,30.422,18.815,93.635-5.161,118.485c-50.021,51.846-152.93,54.187-204.301,50.43
				c-78.922-5.771-149.906-42.082-222.889-4.521c-21.487,11.057-36.439,25.067-45.442,34.751l6.145,475.96H1592.382z"/>
			<g>
				<path style="fill:#FFFFFF;" d="M2154.823,1842.601c-0.687,0-1.376-0.105-2.042-0.318l-121.591-38.786
					c-1.043-0.333-1.989-0.915-2.757-1.697l-56.466-57.625l-92.595-20.127l-124.405,11.128c-1.428,0.126-2.839-0.2-4.057-0.931
					l-131.122-78.74c-1.164-0.699-2.089-1.735-2.653-2.97l-42.99-94.256c-0.564-1.24-0.74-2.622-0.502-3.964l24.388-137.212
					l-3.663-93.894c-0.061-1.558,0.422-3.086,1.364-4.328l65.288-85.9l53.646-102.979c0.751-1.443,2.001-2.563,3.514-3.153
					l121.601-47.495l94.414-52.129c0.625-0.344,1.3-0.587,2.001-0.72l179.385-33.863c1.263-0.236,2.56-0.11,3.752,0.369
					l102.047,41.04l149.75-9.362c1.832-0.123,3.599,0.515,4.943,1.738l104.454,95.134l125.103,36.729
					c2.076,0.61,3.732,2.183,4.447,4.224l70.579,201.533c0.25,0.713,0.377,1.464,0.377,2.22v128.003
					c0,0.746-0.125,1.486-0.367,2.191l-49.143,142.468c-0.423,1.227-1.194,2.306-2.217,3.104l-147.631,115.214
					c-1.135,0.885-2.525,1.384-3.965,1.42l-147.891,3.683l-172.178,79.631C2156.751,1842.393,2155.788,1842.601,2154.823,1842.601z
					 M2036.862,1791.207l117.512,37.485l171.068-79.119c0.831-0.385,1.735-0.595,2.652-0.618l147.064-3.662l144.314-112.626
					l48.127-139.522V1367.41l-69.062-197.201l-123.281-36.194c-0.977-0.287-1.877-0.792-2.63-1.479l-103.497-94.261l-148.427,9.28
					c-1.01,0.059-1.999-0.098-2.925-0.472l-101.634-40.875l-176.397,33.299l-93.861,51.824c-0.259,0.143-0.528,0.269-0.803,0.375
					l-119.666,46.739l-52.744,101.249c-0.176,0.338-0.38,0.659-0.61,0.963l-64.177,84.437l3.598,92.21
					c0.018,0.482-0.015,0.964-0.098,1.438l-24.148,135.866l41.257,90.455l127.458,76.538l123.247-11.025
					c0.679-0.064,1.359-0.018,2.025,0.126l95.562,20.774c1.281,0.279,2.453,0.927,3.371,1.863L2036.862,1791.207z"/>
				<path style="fill:#FFFFFF;" d="M1836.535,1947.077c-0.28,0-0.563-0.023-0.841-0.07l-112.834-19.125
					c-0.792-0.135-1.54-0.456-2.181-0.936l-69.375-52.031c-1.094-0.82-1.807-2.05-1.976-3.406l-9.75-78.006l-42.843-59.162
					c-0.897-1.238-1.182-2.816-0.777-4.29l22.433-81.639l9.714,2.67l-21.792,79.308l42.182,58.252
					c0.497,0.687,0.813,1.489,0.918,2.33l9.647,77.166l66.687,50.015l110.207,18.679l111.301-45.778
					c0.267-0.11,0.543-0.197,0.825-0.259l113.285-25.152l35.65-50.587l8.235,5.805l-36.773,52.18
					c-0.723,1.025-1.802,1.743-3.026,2.016l-114.764,25.481l-112.235,46.161C1837.84,1946.949,1837.189,1947.077,1836.535,1947.077z
					"/>
				<polygon style="fill:#FFFFFF;" points="2221.736,1684.468 2025.441,1684.468 2011.814,1556.849 1750.792,1556.849 
					1816.232,1406.14 1780.296,1287.912 1600.681,1326.849 1599.258,1320.283 1784.924,1280.038 1823.378,1406.55 
					1761.031,1550.132 2017.852,1550.132 2031.479,1677.751 2216.748,1677.751 2269.613,1502.72 2416.551,1574.735 
					2507.718,1463.652 2621.057,1478.181 2670.063,1368.079 2415.7,1260.387 2291.265,1378.648 2134.083,1386.296 
					2124.172,1214.372 1938.698,1159.911 1922.736,1039.832 1929.394,1038.947 1944.782,1154.697 2130.607,1209.259 
					2140.406,1379.264 2288.448,1372.059 2414.263,1252.487 2678.981,1364.56 2625.159,1485.478 2510.551,1470.787 
					2418.369,1583.108 2273.757,1512.231 				"/>
				<path style="fill:#FFFFFF;" d="M2196.5,1825.661l-167.893-143.845l-53.093,58.549l-219.678-185.117l-0.166,0.121l-0.633,1.038
					l-0.431-0.262l-130.37,94.958l-1.978-2.716l129.244-94.137l-77.74-47.414l-5.033-84.258l55.518-126.571l-19.322-145.911
					l78.684,132.276l197.401,16.4l-158.433-100.727l118.008-42.114l79.545-140.785l137.027,69.393l-27.671,125.561l159.024-2.425
					l39.305-173.93l88.056,220.367l190.216-92.334l-29.875,162.933l-65.228,142.297l90.405,191.438l-180.891,3.501L2196.5,1825.661z
					 M2028.312,1677.143l168.352,144.239l222.71-162.774l176.765-3.419l-88.856-188.162l65.79-143.525l28.519-155.808
					l-187.501,91.016l-85.383-213.679l-37.505,165.963l-165.911,2.53l28.025-127.165l-131.841-66.766l-78.581,139.08
					l-112.714,40.225l164.13,104.348l-212.7-17.669l-71.207-119.705l17.299,130.625l-55.571,126.689l4.879,81.7l77.432,47.224
					l1.546-1.125l219.215,184.726L2028.312,1677.143z"/>
				<path style="opacity:0.68;fill:#FFFFFF;" d="M2033.232,1798.358c-0.264,0-0.526-0.084-0.745-0.243
					c-0.308-0.228-0.499-0.582-0.513-0.966l-4.772-117.619c-0.013-0.328,0.102-0.648,0.32-0.892l137.566-153.313l-28.5-139.478
					l-120.731,168.005c-0.256,0.354-0.699,0.538-1.105,0.522c-0.435-0.028-0.823-0.279-1.028-0.661l-60.441-112.865l-131.284-32.843
					l63.906,144.604c0.094,0.21,0.128,0.441,0.098,0.669l-12.596,97.958c-0.059,0.451-0.356,0.836-0.777,1.007l-147.468,59.589
					c-0.336,0.135-0.713,0.123-1.038-0.043c-0.323-0.162-0.561-0.456-0.653-0.807l-29.435-112.7l-114.331-55.802
					c-0.42-0.205-0.692-0.626-0.707-1.094c-0.013-0.467,0.233-0.905,0.641-1.135l238.214-134.439l-92.01-107.772l-120.825,105.624
					c-0.52,0.454-1.318,0.405-1.776-0.12c-0.458-0.523-0.405-1.318,0.12-1.776l121.784-106.463c0.253-0.221,0.589-0.318,0.92-0.308
					c0.336,0.025,0.648,0.182,0.866,0.438l93.569,109.6l133.931,33.505c0.346,0.087,0.638,0.313,0.805,0.626l59.751,111.575
					l121.233-168.702c0.292-0.403,0.791-0.592,1.287-0.497c0.489,0.105,0.869,0.489,0.969,0.979l29.204,142.92
					c0.08,0.392-0.03,0.797-0.295,1.094l-137.648,153.405l4.687,115.528l98.69-26.869l85.211-89.986
					c0.1-0.105,0.215-0.192,0.343-0.256l198.217-100.967c0.384-0.198,0.843-0.182,1.214,0.038c0.372,0.22,0.605,0.615,0.618,1.046
					l2.478,81.764c0.021,0.695-0.526,1.276-1.222,1.297c-0.838,0.002-1.276-0.528-1.297-1.222l-2.417-79.778l-196.253,99.966
					l-85.304,90.085c-0.159,0.167-0.361,0.289-0.584,0.349l-100.557,27.377C2033.453,1798.343,2033.342,1798.358,2033.232,1798.358z
					 M1582.963,1541.267l112.698,55.005c0.33,0.161,0.572,0.458,0.666,0.813l29.219,111.873l145.457-58.777l12.456-96.877
					l-64.244-145.369L1582.963,1541.267z"/>
				<path style="opacity:0.68;fill:#FFFFFF;" d="M2492.146,1741.752c-0.07,0-0.141-0.005-0.211-0.018l-147.805-24.963
					l-125.236-36.081c-0.407-0.118-0.728-0.431-0.853-0.836c-0.126-0.405-0.041-0.846,0.228-1.172l109.02-132.804
					c0.126-0.153,0.285-0.274,0.466-0.354l179.715-79.148l-92.283-206.421l-49.795,157.99c-0.063,0.2-0.176,0.382-0.326,0.528
					l-92.505,89.096c-0.389,0.371-0.966,0.459-1.443,0.216c-0.479-0.243-0.751-0.761-0.679-1.291l18.06-134.306l-157.736-89.981
					c-0.41-0.234-0.656-0.679-0.633-1.153c0.021-0.472,0.307-0.894,0.738-1.089l158.472-71.777c0.22-0.1,0.459-0.135,0.705-0.098
					l112.262,16.635l73.426-97.908c0.29-0.394,0.782-0.582,1.271-0.476c0.48,0.103,0.858,0.477,0.964,0.956l19.845,88.505
					l90.468,35.278c0.217,0.085,0.405,0.228,0.544,0.412l86.702,114.016c0.421,0.554,0.315,1.345-0.24,1.765
					c-0.554,0.423-1.343,0.315-1.764-0.239l-86.487-113.734l-90.763-35.393c-0.39-0.152-0.679-0.49-0.771-0.899l-19.394-86.495
					l-72.237,96.324c-0.277,0.367-0.723,0.546-1.192,0.49l-112.637-16.69l-155.886,70.607l156.329,89.178
					c0.444,0.254,0.692,0.753,0.623,1.261l-17.69,131.566l89.67-86.365l50.697-160.849c0.156-0.499,0.605-0.848,1.128-0.879
					c0.53-0.034,1.009,0.266,1.222,0.745l94.153,210.606c0.138,0.305,0.146,0.653,0.026,0.966c-0.121,0.313-0.361,0.564-0.667,0.7
					l-180.599,79.537l-107.615,131.092l123.259,35.521l147.666,24.932c0.685,0.115,1.148,0.766,1.031,1.451
					C2493.282,1741.318,2492.749,1741.752,2492.146,1741.752z"/>
				<path style="fill:#FFFFFF;" d="M2438.211,1732.645c-0.293,0-0.589-0.102-0.828-0.31c-0.523-0.458-0.579-1.253-0.122-1.778
					l62.583-71.779l-83.255-79.353c-0.341-0.326-0.472-0.815-0.34-1.268c0.133-0.453,0.508-0.792,0.971-0.881l131.965-25.326
					l73.043-71.125c0.317-0.31,0.774-0.426,1.205-0.315c0.43,0.116,0.766,0.449,0.885,0.876l22.3,79.44
					c0.188,0.671-0.202,1.366-0.871,1.553c-0.676,0.202-1.366-0.202-1.553-0.871l-21.728-77.4l-71.795,69.91
					c-0.177,0.172-0.4,0.289-0.641,0.334l-129.933,24.935l82.356,78.497c0.487,0.466,0.523,1.232,0.08,1.74l-63.375,72.688
					C2438.912,1732.499,2438.562,1732.645,2438.211,1732.645z"/>
				<path style="fill:#FFFFFF;" d="M1781.057,1286.835c-0.112,0-0.223-0.012-0.336-0.034c-0.733-0.149-1.279-0.766-1.338-1.512
					l-13.376-168.734c-0.072-0.925,0.617-1.733,1.542-1.807c0.956-0.075,1.733,0.618,1.807,1.542l12.915,162.923l46.309-88.571
					l37.726-119.657c0.28-0.885,1.231-1.369,2.107-1.097c0.884,0.28,1.376,1.223,1.097,2.107l-37.841,119.93l-49.125,94.01
					C1782.251,1286.495,1781.674,1286.835,1781.057,1286.835z"/>
				<path style="opacity:0.68;fill:#FFFFFF;" d="M2014.833,1554.376c-0.272,0-0.538-0.089-0.758-0.254l-195.028-146.959
					c-0.48-0.361-0.638-1.01-0.377-1.551l54.912-113.915l-54.597-96.608c-0.243-0.43-0.211-0.961,0.079-1.361
					c0.289-0.399,0.789-0.589,1.269-0.494l239.302,48.785l-60.471-66.737c-0.256-0.284-0.37-0.666-0.312-1.043
					c0.061-0.377,0.287-0.707,0.618-0.895l155.14-88.988l64.856-44.545c0.576-0.39,1.359-0.249,1.751,0.325
					c0.394,0.574,0.248,1.358-0.325,1.751l-64.943,44.599l-153.869,88.263l61.356,67.717l63.388-31.782l200.616-172.254
					c0.53-0.451,1.323-0.39,1.776,0.136c0.453,0.528,0.392,1.322-0.136,1.776l-200.872,172.424l-64.395,32.328l-75.036,56.647
					l-32.905,136.156l180.997-56.327c0.433-0.141,0.899-0.026,1.227,0.275l134.439,123.887c0.353,0.325,0.49,0.818,0.356,1.277
					c-0.133,0.459-0.515,0.803-0.984,0.889l-256.851,46.457C2014.982,1554.37,2014.906,1554.376,2014.833,1554.376z
					 M1821.387,1405.774l193.763,146.005l253.819-45.907l-132.045-121.679l-182.424,56.771c-0.436,0.141-0.905,0.028-1.235-0.284
					c-0.331-0.31-0.469-0.774-0.364-1.214l33.533-138.752c0.069-0.284,0.233-0.535,0.466-0.71l73.26-55.305l-237.623-48.444
					l53.56,94.776c0.202,0.359,0.216,0.795,0.038,1.166L1821.387,1405.774z"/>
				<path style="fill:#FFFFFF;" d="M2137.243,1384.033c-0.203,0-0.41-0.049-0.602-0.154l-149.584-81.764
					c-0.477-0.261-0.733-0.799-0.635-1.333c0.097-0.533,0.526-0.944,1.066-1.02l143.724-19.898l283.659-24.708
					c0.73-0.052,1.305,0.453,1.364,1.145c0.061,0.694-0.453,1.304-1.145,1.364l-283.597,24.701l-139.883,19.368l146.238,79.934
					c0.612,0.334,0.835,1.099,0.502,1.709C2138.121,1383.797,2137.689,1384.033,2137.243,1384.033z"/>
				<polygon style="fill:#FFFFFF;" points="1933.777,1897.973 1886.199,1825.014 1766.243,1798.501 1753.168,1731.11 
					1645.251,1793.052 1643.578,1790.139 1755.569,1725.859 1769.119,1795.697 1888.262,1822.029 1934.836,1893.451 
					2034.147,1834.964 2031.644,1798.504 1938.511,1780.604 1866.819,1719.608 1868.997,1717.05 1940.013,1777.472 
					2034.819,1795.693 2037.64,1836.804 				"/>
				<path style="opacity:0.68;fill:#FFFFFF;" d="M1788.546,1935.485c-0.477,0-0.948-0.202-1.277-0.589l-66.169-77.397
					l-31.737,39.269c-0.582,0.72-1.638,0.836-2.361,0.249c-0.72-0.582-0.833-1.64-0.249-2.361l32.128-39.755l-0.231-0.272
					c-0.144-0.169-0.254-0.364-0.323-0.576l-27.936-86.72c-0.052-0.166-0.08-0.339-0.08-0.515v-74.101l-87.617,40.194
					c-0.845,0.39-1.838,0.016-2.227-0.827c-0.387-0.843-0.016-1.84,0.826-2.227l89.996-41.285c0.518-0.238,1.123-0.195,1.607,0.113
					c0.48,0.308,0.772,0.841,0.772,1.414v76.454l27.535,85.473l45.248-55.986c0.215-0.266,0.507-0.461,0.836-0.556l143.699-41.845
					c0.604-0.174,1.256,0.002,1.689,0.457c0.433,0.458,0.572,1.118,0.364,1.712l-43.251,122.806
					c-0.116,0.331-0.334,0.617-0.622,0.818l-79.658,55.746C1789.215,1935.386,1788.879,1935.485,1788.546,1935.485z
					 M1723.246,1854.842l65.584,76.713l77.968-54.562l41.986-119.213l-140.054,40.783L1723.246,1854.842z"/>
				<circle style="fill:#FFFFFF;" cx="1781.057" cy="1285.156" r="17.712"/>
				<circle style="fill:#FFFFFF;" cx="1945.456" cy="1158.542" r="17.712"/>
				<circle style="fill:#FFFFFF;" cx="2220.227" cy="1681.338" r="17.712"/>
				
					<ellipse transform="matrix(0.9239 -0.3827 0.3827 0.9239 -299.3488 1020.2845)" style="fill:#FFFFFF;" cx="2414.981" cy="1262.605" rx="17.712" ry="17.712"/>
				<circle style="fill:#FFFFFF;" cx="2144.172" cy="1089.2" r="17.712"/>
				<circle style="fill:#FFFFFF;" cx="2137.245" cy="1382.774" r="17.712"/>
				<circle style="fill:#FFFFFF;" cx="2013.36" cy="1553.117" r="17.712"/>
				<circle style="fill:#FFFFFF;" cx="1755.911" cy="1554.975" r="17.712"/>
				<circle style="fill:#FFFFFF;" cx="1773.623" cy="1797.099" r="17.712"/>
				<circle style="fill:#FFFFFF;" cx="2513.722" cy="1469.494" r="17.712"/>
				
					<ellipse transform="matrix(0.2298 -0.9732 0.9732 0.2298 688.3363 3528.7568)" style="fill:#FFFFFF;" cx="2573.555" cy="1329.504" rx="17.712" ry="17.712"/>
				<circle style="fill:#FFFFFF;" cx="1830.954" cy="1196.946" r="11.15"/>
				<circle style="fill:#FFFFFF;" cx="2496.01" cy="1214.003" r="11.15"/>
				<circle style="fill:#FFFFFF;" cx="2419.937" cy="1581.978" r="11.15"/>
				<circle style="fill:#FFFFFF;" cx="2555.843" cy="1553.117" r="11.15"/>
				<circle style="fill:#FFFFFF;" cx="1890.207" cy="1823.522" r="11.15"/>
				<circle style="fill:#FFFFFF;" cx="1721.723" cy="1859.733" r="11.15"/>
				<circle style="fill:#FFFFFF;" cx="1686.536" cy="1769.722" r="11.15"/>
				<circle style="fill:#FFFFFF;" cx="1987.66" cy="1301.01" r="11.15"/>
				<circle style="fill:#FFFFFF;" cx="2166.448" cy="1524.255" r="11.15"/>
				<circle style="fill:#FFFFFF;" cx="2289.857" cy="1207.896" r="11.15"/>
				<circle style="fill:#FFFFFF;" cx="1867.908" cy="1652.476" r="11.15"/>
				<circle style="fill:#FFFFFF;" cx="1956.606" cy="1434.032" r="11.15"/>
				<circle style="fill:#FFFFFF;" cx="1819.805" cy="1406.415" r="11.15"/>
				<circle style="fill:#FFFFFF;" cx="2289.857" cy="1371.513" r="11.15"/>
			</g>
		</g>
		<g>
			
				<linearGradient id="SVGID_00000078011449900605157650000003360072137427582592_" gradientUnits="userSpaceOnUse" x1="-1338.4429" y1="1587.7358" x2="-1459.5132" y2="1958.8417" gradientTransform="matrix(-1 0 0 1 -214.264 0)">
				<stop  offset="0" style="stop-color:#F9B776"/>
				<stop  offset="1" style="stop-color:#F47960"/>
			</linearGradient>
			<path style="fill:url(#SVGID_00000078011449900605157650000003360072137427582592_);" d="M1242.057,1615.179
				c0,0,168.431,215.647-23.737,434.977l-72.246-6.732c0,0,139.073-223.306,77.129-401.312l-102.339,7.471l-56.593-36.887
				L1242.057,1615.179z"/>
			
				<linearGradient id="SVGID_00000063612053460222598640000004692122122158023848_" gradientUnits="userSpaceOnUse" x1="-1364.0735" y1="2906.4758" x2="-1108.9716" y2="2906.4758" gradientTransform="matrix(-1 0 0 1 -214.264 0)">
				<stop  offset="0" style="stop-color:#F9B776"/>
				<stop  offset="1" style="stop-color:#F47960"/>
			</linearGradient>
			<path style="fill:url(#SVGID_00000063612053460222598640000004692122122158023848_);" d="M1149.809,2670.979
				c0,0-136.465,297.428-208.063,420.622c0,0-14.22,77.516,0,101.891l12.119,5.387l-56.56-1.683c0,0-5.025-104.267-1.101-110.092
				c3.924-5.824,11.772-5.442,11.772-5.442s24.252-192.139,94.488-233.146l68.067-234.443L1149.809,2670.979z"/>
			
				<linearGradient id="SVGID_00000054238046840792142660000011967920517247193222_" gradientUnits="userSpaceOnUse" x1="-1013.429" y1="2335.9895" x2="-1139.7633" y2="3157.1592" gradientTransform="matrix(-1 0 0 1 -214.264 0)">
				<stop  offset="0" style="stop-color:#53D8FF"/>
				<stop  offset="1" style="stop-color:#3840F7"/>
			</linearGradient>
			<path style="fill:url(#SVGID_00000054238046840792142660000011967920517247193222_);" d="M978.021,3213.481
				c0.084,1.364-44.165,0.741-68.202,0.302c-8.875-0.162-16.442-6.4-18.334-15.073l-18.152-95.367
				c-1.725-9.063,4.03-17.866,13.024-19.922l10.132-2.316c0,0,14.454,19.828,9.904,38.496c-4.55,18.668-8.599,67.024,2.899,72.659
				c11.498,5.635,44.574,6.619,44.574,6.619S977.265,3201.199,978.021,3213.481z"/>
			
				<linearGradient id="SVGID_00000053524202769203769530000004681275434241359803_" gradientUnits="userSpaceOnUse" x1="-1280.739" y1="2294.8665" x2="-1407.0737" y2="3116.0383" gradientTransform="matrix(-1 0 0 1 -214.264 0)">
				<stop  offset="0" style="stop-color:#53D8FF"/>
				<stop  offset="1" style="stop-color:#3840F7"/>
			</linearGradient>
			<path style="fill:url(#SVGID_00000053524202769203769530000004681275434241359803_);" d="M1279.154,3215.212
				c4.476,2.55,2.63,9.383-2.521,9.331c-40.225-0.405-130.361-1.677-138.371-5.008c-10.341-4.3,3.768-41.458,18.617-54.035
				l81.988,26.759L1279.154,3215.212z"/>
			
				<linearGradient id="SVGID_00000183226779219004274280000002709173084292857007_" gradientUnits="userSpaceOnUse" x1="-1518.868" y1="2925.4443" x2="-1371.1436" y2="2925.4443" gradientTransform="matrix(-1 0 0 1 -214.264 0)">
				<stop  offset="0" style="stop-color:#F9B776"/>
				<stop  offset="1" style="stop-color:#F47960"/>
			</linearGradient>
			<path style="fill:url(#SVGID_00000183226779219004274280000002709173084292857007_);" d="M1304.604,2652.01
				c0,0-88.187,426.615-113.133,509.835l59.015,37.034c0,0-29.574-5.03-51.504-6.619c-21.93-1.589-42.102-26.759-42.102-26.759
				l7.07-11.276c0,0,22.115-424.293,16.731-472.472L1304.604,2652.01z"/>
			
				<linearGradient id="SVGID_00000062176546453799121620000013473287151419033729_" gradientUnits="userSpaceOnUse" x1="-1837.0934" y1="1817.1202" x2="-1547.8958" y2="1817.1202" gradientTransform="matrix(-1 0 0 1 -214.264 0)">
				<stop  offset="0" style="stop-color:#F9B776"/>
				<stop  offset="1" style="stop-color:#F47960"/>
			</linearGradient>
			<path style="fill:url(#SVGID_00000062176546453799121620000013473287151419033729_);" d="M1523.514,1656.926
				c0,0,12.164,221.922-189.882,335.324l48.644,110.942c0,0,182.926-110.643,176.161-412.41c-0.194-8.66,2.929-17.07,8.585-23.631
				l38.878-45.103c14.812-17.184,20.348-40.496,14.842-62.504l-5.118-20.456c-1.713-6.848-9.513-10.143-15.617-6.598l-4.066,2.361
				c-12.943,7.517-23.195,18.913-29.307,32.576l-19.09,42.673c-7.131,15.94-23.572,25.618-40.97,24.116l-11.804-1.019
				L1523.514,1656.926z"/>
			
				<linearGradient id="SVGID_00000092435351934802513570000004985790949150803083_" gradientUnits="userSpaceOnUse" x1="-1520.1823" y1="1974.3339" x2="-977.9987" y2="3048.1731" gradientTransform="matrix(-1 0 0 1 -214.264 0)">
				<stop  offset="0" style="stop-color:#FDF53F"/>
				<stop  offset="1" style="stop-color:#D93C65"/>
			</linearGradient>
			<path style="fill:url(#SVGID_00000092435351934802513570000004985790949150803083_);" d="M1340.665,1975.62
				c-33.802,9.374-148.318,39.499-219.809,38.268l43.894,247.699l-3.493,40.4l143.112-0.641c0,0,40.287-93.563,72.073-140.209
				c9.18-13.472,2.348-29.542-2.855-44.992l7.149-4.76c7.275-4.843,10.429-13.941,7.714-22.248l-34.85-106.626
				C1351.789,1977.137,1346.129,1974.105,1340.665,1975.62z"/>
			
				<linearGradient id="SVGID_00000152232050921066850060000001801644706838682036_" gradientUnits="userSpaceOnUse" x1="-1649.2944" y1="2258.0876" x2="-1175.5421" y2="2792.3748" gradientTransform="matrix(-1 0 0 1 -214.264 0)">
				<stop  offset="0" style="stop-color:#53D8FF"/>
				<stop  offset="1" style="stop-color:#3840F7"/>
			</linearGradient>
			<path style="fill:url(#SVGID_00000152232050921066850060000001801644706838682036_);" d="M1315.836,2280.205l-2.815,24.476
				c0,0,40.443,121.118-20.222,404.005c0,0-131.387,37.221-239.373-51.845c0,0,30.462-267.002,38.782-279.439
				c41.442-61.948,69.049-75.414,69.049-75.414l1.245-26.74C1162.501,2275.248,1277.999,2296.13,1315.836,2280.205z"/>
			
				<linearGradient id="SVGID_00000139286480647426867080000011777410529538258336_" gradientUnits="userSpaceOnUse" x1="-1474.0847" y1="1959.1028" x2="-1383.6855" y2="1959.1028" gradientTransform="matrix(-1 0 0 1 -214.264 0)">
				<stop  offset="0" style="stop-color:#F9B776"/>
				<stop  offset="1" style="stop-color:#F47960"/>
			</linearGradient>
			<path style="fill:url(#SVGID_00000139286480647426867080000011777410529538258336_);" d="M1259.814,1995.584
				c0.502-0.663-29.877-91.721-29.877-91.721l-43.516,3.948l-17,103.3C1169.422,2011.111,1237.62,2024.877,1259.814,1995.584z"/>
			
				<linearGradient id="SVGID_00000010304643283855048240000002132691507810494626_" gradientUnits="userSpaceOnUse" x1="-1330.412" y1="1842.2805" x2="-672.4224" y2="1887.0238" gradientTransform="matrix(-1 0 0 1 -214.264 0)">
				<stop  offset="0" style="stop-color:#F9B776"/>
				<stop  offset="1" style="stop-color:#F47960"/>
			</linearGradient>
			<path style="fill:url(#SVGID_00000010304643283855048240000002132691507810494626_);" d="M1196.839,1760.264
				c2.901,1.807,92.988,39.037,73.633,132.563c-1.144,5.527-4.832,10.211-9.986,12.51c-13.22,5.896-41.68,15.993-75.72,12.534
				c-47.193-4.796-78.118-87.149-76.802-111.113C1109.279,1782.793,1168.08,1742.356,1196.839,1760.264z"/>
			
				<linearGradient id="SVGID_00000018231481244300200780000007950874266075298976_" gradientUnits="userSpaceOnUse" x1="-1222.2617" y1="1802.618" x2="-1453.8734" y2="2265.8406" gradientTransform="matrix(-1 0 0 1 -214.264 0)">
				<stop  offset="0" style="stop-color:#2B3582"/>
				<stop  offset="1" style="stop-color:#150E42"/>
			</linearGradient>
			<path style="fill:url(#SVGID_00000018231481244300200780000007950874266075298976_);" d="M1169.422,1723.904
				c2.369,0.311,52.06,17.618,27.418,53.626s-33.887,57.205-22.231,73.017c10.619,14.405,34.142,6.195,32.089,36.165
				c-0.411,5.999,2.184,11.823,7.163,15.194c22.167,15.005,76.247,61.189,22.666,127.053c-4.355,5.353-5.253,12.744-1.892,18.771
				c15.693,28.148,48.657,110.608-70.685,156.349c-117.929,45.199-160.508-31.888-172.404-62.701
				c-2.573-6.664-9.135-10.744-16.27-10.407c-12.958,0.612-31.321-1.544-30.477-18.861c0.513-10.518,7.076-19.944,14.832-27.501
				c7.676-7.48,6.16-20.576-3.159-25.871c-7.039-4-13.269-10.244-15.898-19.986c-7.147-26.483,7.121-105.668,83.022-119.088
				c6.331-1.119,12.961-7.055,13.883-13.418c0.014-0.094,0.028-0.189,0.044-0.284c1.018-6.154-1.064-12.446-6.094-16.135
				c-12.12-8.891-27.662-26.79-15.038-55.494c11.196-25.458,32.67-34.046,48.621-36.783c9.365-1.607,15.522-10.464,13.548-19.758
				C1073.179,1752.462,1077.868,1711.9,1169.422,1723.904z"/>
			
				<linearGradient id="SVGID_00000032618385266072358830000005088412024170827447_" gradientUnits="userSpaceOnUse" x1="1320.175" y1="276.6834" x2="1320.175" y2="1858.4054">
				<stop  offset="0" style="stop-color:#FDF53F"/>
				<stop  offset="1" style="stop-color:#D93C65"/>
			</linearGradient>
			<path style="fill:url(#SVGID_00000032618385266072358830000005088412024170827447_);" d="M1725.716,1620.255H914.634
				c-11.005,0-19.926-8.921-19.926-19.926V876.053c0-11.005,8.921-19.926,19.926-19.926h811.082
				c11.005,0,19.927,8.921,19.927,19.926v724.275C1745.642,1611.334,1736.721,1620.255,1725.716,1620.255z"/>
			
				<linearGradient id="SVGID_00000079472227357186290350000014069730519625095336_" gradientUnits="userSpaceOnUse" x1="1291.7428" y1="778.9149" x2="1388.2031" y2="2322.2952">
				<stop  offset="0" style="stop-color:#FDF53F"/>
				<stop  offset="1" style="stop-color:#D93C65"/>
			</linearGradient>
			<path style="fill:url(#SVGID_00000079472227357186290350000014069730519625095336_);" d="M1681.266,1576.334H959.131
				c-11.005,0-19.926-8.921-19.926-19.926V912.005c0-11.005,8.921-19.926,19.926-19.926h722.135
				c11.005,0,19.926,8.921,19.926,19.926v644.402C1701.192,1567.412,1692.271,1576.334,1681.266,1576.334z"/>
			<path style="fill:#FFFFFF;" d="M952.638,1187.602c-1.855,0-3.358-1.504-3.358-3.358V975.147
				c0-38.751,31.527-70.279,70.279-70.279h240.263c1.855,0,3.358,1.504,3.358,3.358c0,1.855-1.504,3.358-3.358,3.358h-240.263
				c-35.048,0-63.562,28.513-63.562,63.562v209.096C955.997,1186.098,954.493,1187.602,952.638,1187.602z"/>
			<path style="fill:#FFFFFF;" d="M952.638,1351.217c-1.855,0-3.358-1.504-3.358-3.358v-137.766c0-1.855,1.504-3.358,3.358-3.358
				c1.855,0,3.358,1.504,3.358,3.358v137.766C955.997,1349.713,954.493,1351.217,952.638,1351.217z"/>
			<g>
				<path style="fill:#FFFFFF;" d="M1432.337,1464.546h-60.687c-6.812,0-12.401-1.7-16.777-5.106
					c-4.377-3.401-7.542-7.632-9.483-12.691l-31.511-86.074h-174.769l-31.513,86.074c-1.558,4.477-4.623,8.562-9.19,12.253
					c-4.574,3.698-10.167,5.544-16.777,5.544h-60.979l165.725-421.9h80.236L1432.337,1464.546z M1159.24,1305.239h134.506
					l-51.351-140.341c-2.333-6.223-4.915-13.568-7.732-22.028c-2.822-8.462-5.594-17.653-8.316-27.572
					c-2.725,9.919-5.397,19.16-8.024,27.718c-2.625,8.562-5.205,16.047-7.732,22.466L1159.24,1305.239z"/>
				<path style="fill:#FFFFFF;" d="M1564.213,1464.546h-78.778v-421.9h78.778V1464.546z"/>
			</g>
		</g>
		<g>
			
				<linearGradient id="SVGID_00000100346860003872764080000005138324897395636360_" gradientUnits="userSpaceOnUse" x1="2634.9116" y1="3447.6528" x2="2660.3606" y2="1264.2897">
				<stop  offset="0" style="stop-color:#A737D5"/>
				<stop  offset="1" style="stop-color:#EF497A"/>
			</linearGradient>
			<path style="fill:url(#SVGID_00000100346860003872764080000005138324897395636360_);" d="M3243.566,3203.015H2034.855
				c-4.636,0-8.394-3.758-8.394-8.394v-231.592c0-4.636,3.758-8.395,8.394-8.395h1208.711c4.636,0,8.394,3.758,8.394,8.395v231.592
				C3251.96,3199.257,3248.202,3203.015,3243.566,3203.015z"/>
			<path style="opacity:0.31;fill:#FFFFFF;" d="M3217.285,3182.569H2057.527c-4.636,0-8.394-3.758-8.394-8.394v-195.697
				c0-4.636,3.758-8.394,8.394-8.394h1159.758c4.636,0,8.394,3.758,8.394,8.394v195.697
				C3225.68,3178.81,3221.921,3182.569,3217.285,3182.569z"/>
			<g>
				<path style="fill:#FFFFFF;" d="M2148.014,3077.313c0,8.682-0.93,16.229-2.792,22.638c-1.86,6.411-4.433,11.705-7.718,15.887
					c-3.286,4.18-7.168,7.294-11.648,9.339c-4.48,2.042-9.314,3.065-14.507,3.065c-5.191,0-10.005-1.023-14.438-3.065
					c-4.433-2.044-8.281-5.159-11.543-9.339c-3.262-4.182-5.813-9.476-7.651-15.887c-1.838-6.409-2.755-13.956-2.755-22.638
					c0-8.729,0.918-16.288,2.755-22.675c1.838-6.386,4.389-11.671,7.651-15.851c3.262-4.182,7.11-7.294,11.543-9.338
					c4.433-2.044,9.247-3.068,14.438-3.068c5.193,0,10.027,1.023,14.507,3.068c4.48,2.044,8.362,5.156,11.648,9.338
					c3.284,4.18,5.858,9.464,7.718,15.851C2147.084,3061.025,2148.014,3068.584,2148.014,3077.313z M2130.439,3077.313
					c0-7.213-0.529-13.186-1.584-17.919c-1.058-4.731-2.47-8.5-4.239-11.302c-1.769-2.802-3.803-4.768-6.099-5.894
					c-2.298-1.125-4.686-1.688-7.168-1.688c-2.435,0-4.79,0.563-7.063,1.688c-2.275,1.126-4.285,3.092-6.03,5.894
					c-1.747,2.802-3.136,6.571-4.17,11.302c-1.035,4.733-1.552,10.706-1.552,17.919s0.517,13.186,1.552,17.917
					c1.033,4.733,2.423,8.502,4.17,11.304c1.745,2.802,3.754,4.767,6.03,5.892c2.273,1.127,4.628,1.688,7.063,1.688
					c2.482,0,4.871-0.561,7.168-1.688c2.296-1.125,4.33-3.09,6.099-5.892c1.769-2.802,3.181-6.571,4.239-11.304
					C2129.911,3090.499,2130.439,3084.526,2130.439,3077.313z"/>
				<path style="fill:#FFFFFF;" d="M2227.958,3077.313c0,8.682-0.93,16.229-2.792,22.638c-1.86,6.411-4.433,11.705-7.718,15.887
					c-3.286,4.18-7.168,7.294-11.648,9.339c-4.48,2.042-9.314,3.065-14.507,3.065c-5.191,0-10.005-1.023-14.438-3.065
					c-4.433-2.044-8.281-5.159-11.543-9.339c-3.262-4.182-5.813-9.476-7.651-15.887c-1.838-6.409-2.755-13.956-2.755-22.638
					c0-8.729,0.918-16.288,2.755-22.675s4.389-11.671,7.651-15.851c3.262-4.182,7.11-7.294,11.543-9.338
					c4.433-2.044,9.247-3.068,14.438-3.068c5.193,0,10.027,1.023,14.507,3.068c4.48,2.044,8.362,5.156,11.648,9.338
					c3.284,4.18,5.858,9.464,7.718,15.851C2227.028,3061.025,2227.958,3068.584,2227.958,3077.313z M2210.383,3077.313
					c0-7.213-0.529-13.186-1.584-17.919c-1.058-4.731-2.47-8.5-4.239-11.302c-1.769-2.802-3.803-4.768-6.099-5.894
					c-2.298-1.125-4.687-1.688-7.168-1.688c-2.435,0-4.79,0.563-7.063,1.688c-2.275,1.126-4.285,3.092-6.03,5.894
					c-1.747,2.802-3.136,6.571-4.17,11.302c-1.035,4.733-1.552,10.706-1.552,17.919s0.517,13.186,1.552,17.917
					c1.033,4.733,2.423,8.502,4.17,11.304c1.745,2.802,3.754,4.767,6.03,5.892c2.273,1.127,4.628,1.688,7.063,1.688
					c2.482,0,4.871-0.561,7.168-1.688c2.296-1.125,4.33-3.09,6.099-5.892c1.769-2.802,3.181-6.571,4.239-11.304
					C2209.854,3090.499,2210.383,3084.526,2210.383,3077.313z"/>
				<path style="fill:#FFFFFF;" d="M2249.939,3114.389h20.193v-58.098c0-2.249,0.069-4.617,0.207-7.098l-14.335,11.991
					c-0.598,0.507-1.206,0.851-1.826,1.035c-0.62,0.182-1.23,0.276-1.828,0.276c-0.92,0-1.757-0.197-2.514-0.588
					c-0.758-0.389-1.321-0.837-1.69-1.343l-5.375-7.373l30.394-25.846h13.99v87.043h17.917v12.75h-55.134V3114.389z"/>
				<path style="fill:#FFFFFF;" d="M2329.883,3114.389h20.193v-58.098c0-2.249,0.069-4.617,0.207-7.098l-14.335,11.991
					c-0.598,0.507-1.206,0.851-1.825,1.035c-0.62,0.182-1.23,0.276-1.828,0.276c-0.92,0-1.757-0.197-2.514-0.588
					c-0.758-0.389-1.321-0.837-1.69-1.343l-5.375-7.373l30.394-25.846h13.99v87.043h17.917v12.75h-55.134V3114.389z"/>
				<path style="fill:#FFFFFF;" d="M2467.787,3077.313c0,8.682-0.93,16.229-2.792,22.638c-1.86,6.411-4.433,11.705-7.718,15.887
					c-3.287,4.18-7.169,7.294-11.648,9.339c-4.48,2.042-9.314,3.065-14.507,3.065c-5.191,0-10.005-1.023-14.438-3.065
					c-4.433-2.044-8.281-5.159-11.543-9.339c-3.262-4.182-5.813-9.476-7.651-15.887c-1.838-6.409-2.756-13.956-2.756-22.638
					c0-8.729,0.918-16.288,2.756-22.675s4.389-11.671,7.651-15.851c3.262-4.182,7.11-7.294,11.543-9.338
					c4.433-2.044,9.247-3.068,14.438-3.068c5.193,0,10.027,1.023,14.507,3.068s8.362,5.156,11.648,9.338
					c3.284,4.18,5.857,9.464,7.718,15.851C2466.857,3061.025,2467.787,3068.584,2467.787,3077.313z M2450.212,3077.313
					c0-7.213-0.529-13.186-1.584-17.919c-1.058-4.731-2.47-8.5-4.239-11.302c-1.769-2.802-3.803-4.768-6.099-5.894
					c-2.298-1.125-4.687-1.688-7.168-1.688c-2.436,0-4.79,0.563-7.063,1.688c-2.275,1.126-4.285,3.092-6.03,5.894
					c-1.747,2.802-3.136,6.571-4.17,11.302c-1.035,4.733-1.552,10.706-1.552,17.919s0.517,13.186,1.552,17.917
					c1.033,4.733,2.423,8.502,4.17,11.304c1.744,2.802,3.754,4.767,6.03,5.892c2.273,1.127,4.628,1.688,7.063,1.688
					c2.482,0,4.871-0.561,7.168-1.688c2.296-1.125,4.33-3.09,6.099-5.892c1.769-2.802,3.181-6.571,4.239-11.304
					C2449.683,3090.499,2450.212,3084.526,2450.212,3077.313z"/>
				<path style="fill:#FFFFFF;" d="M2489.768,3114.389h20.192v-58.098c0-2.249,0.069-4.617,0.207-7.098l-14.335,11.991
					c-0.598,0.507-1.206,0.851-1.826,1.035c-0.62,0.182-1.23,0.276-1.827,0.276c-0.92,0-1.757-0.197-2.515-0.588
					c-0.758-0.389-1.321-0.837-1.69-1.343l-5.375-7.373l30.394-25.846h13.991v87.043h17.917v12.75h-55.133V3114.389z"/>
				<path style="fill:#FFFFFF;" d="M2569.712,3114.389h20.192v-58.098c0-2.249,0.069-4.617,0.207-7.098l-14.335,11.991
					c-0.598,0.507-1.206,0.851-1.826,1.035c-0.62,0.182-1.23,0.276-1.828,0.276c-0.92,0-1.757-0.197-2.514-0.588
					c-0.758-0.389-1.321-0.837-1.69-1.343l-5.375-7.373l30.394-25.846h13.99v87.043h17.917v12.75h-55.133V3114.389z"/>
				<path style="fill:#FFFFFF;" d="M2707.615,3077.313c0,8.682-0.93,16.229-2.792,22.638c-1.86,6.411-4.433,11.705-7.718,15.887
					c-3.286,4.18-7.168,7.294-11.648,9.339c-4.48,2.042-9.314,3.065-14.507,3.065c-5.191,0-10.005-1.023-14.438-3.065
					c-4.433-2.044-8.281-5.159-11.543-9.339c-3.262-4.182-5.813-9.476-7.651-15.887c-1.838-6.409-2.755-13.956-2.755-22.638
					c0-8.729,0.918-16.288,2.755-22.675c1.838-6.386,4.389-11.671,7.651-15.851c3.262-4.182,7.11-7.294,11.543-9.338
					c4.433-2.044,9.247-3.068,14.438-3.068c5.193,0,10.027,1.023,14.507,3.068c4.48,2.044,8.362,5.156,11.648,9.338
					c3.284,4.18,5.858,9.464,7.718,15.851C2706.685,3061.025,2707.615,3068.584,2707.615,3077.313z M2690.041,3077.313
					c0-7.213-0.529-13.186-1.584-17.919c-1.058-4.731-2.47-8.5-4.239-11.302c-1.769-2.802-3.803-4.768-6.099-5.894
					c-2.298-1.125-4.687-1.688-7.168-1.688c-2.435,0-4.79,0.563-7.063,1.688c-2.275,1.126-4.285,3.092-6.03,5.894
					c-1.747,2.802-3.137,6.571-4.17,11.302c-1.035,4.733-1.552,10.706-1.552,17.919s0.517,13.186,1.552,17.917
					c1.033,4.733,2.423,8.502,4.17,11.304c1.744,2.802,3.754,4.767,6.03,5.892c2.273,1.127,4.628,1.688,7.063,1.688
					c2.482,0,4.871-0.561,7.168-1.688c2.296-1.125,4.33-3.09,6.099-5.892c1.769-2.802,3.181-6.571,4.239-11.304
					C2689.512,3090.499,2690.041,3084.526,2690.041,3077.313z"/>
				<path style="fill:#FFFFFF;" d="M2729.597,3114.389h20.193v-58.098c0-2.249,0.069-4.617,0.207-7.098l-14.335,11.991
					c-0.598,0.507-1.205,0.851-1.825,1.035c-0.62,0.182-1.23,0.276-1.828,0.276c-0.92,0-1.757-0.197-2.514-0.588
					c-0.758-0.389-1.321-0.837-1.69-1.343l-5.375-7.373l30.394-25.846h13.99v87.043h17.917v12.75h-55.134V3114.389z"/>
				<path style="fill:#FFFFFF;" d="M2867.5,3077.313c0,8.682-0.93,16.229-2.792,22.638c-1.86,6.411-4.433,11.705-7.718,15.887
					c-3.286,4.18-7.168,7.294-11.648,9.339c-4.48,2.042-9.314,3.065-14.507,3.065c-5.191,0-10.005-1.023-14.438-3.065
					c-4.433-2.044-8.281-5.159-11.543-9.339c-3.262-4.182-5.813-9.476-7.651-15.887c-1.838-6.409-2.756-13.956-2.756-22.638
					c0-8.729,0.918-16.288,2.756-22.675s4.389-11.671,7.651-15.851c3.262-4.182,7.11-7.294,11.543-9.338
					c4.433-2.044,9.247-3.068,14.438-3.068c5.193,0,10.027,1.023,14.507,3.068c4.48,2.044,8.362,5.156,11.648,9.338
					c3.284,4.18,5.857,9.464,7.718,15.851C2866.571,3061.025,2867.5,3068.584,2867.5,3077.313z M2849.926,3077.313
					c0-7.213-0.529-13.186-1.584-17.919c-1.058-4.731-2.47-8.5-4.239-11.302c-1.769-2.802-3.803-4.768-6.099-5.894
					c-2.298-1.125-4.687-1.688-7.168-1.688c-2.436,0-4.79,0.563-7.063,1.688c-2.275,1.126-4.285,3.092-6.03,5.894
					c-1.747,2.802-3.136,6.571-4.17,11.302c-1.035,4.733-1.552,10.706-1.552,17.919s0.517,13.186,1.552,17.917
					c1.033,4.733,2.423,8.502,4.17,11.304c1.744,2.802,3.754,4.767,6.03,5.892c2.273,1.127,4.628,1.688,7.063,1.688
					c2.482,0,4.871-0.561,7.168-1.688c2.296-1.125,4.33-3.09,6.099-5.892c1.769-2.802,3.181-6.571,4.239-11.304
					C2849.397,3090.499,2849.926,3084.526,2849.926,3077.313z"/>
				<path style="fill:#FFFFFF;" d="M2889.484,3114.389h20.193v-58.098c0-2.249,0.069-4.617,0.207-7.098l-14.335,11.991
					c-0.598,0.507-1.205,0.851-1.825,1.035c-0.62,0.182-1.23,0.276-1.828,0.276c-0.92,0-1.757-0.197-2.514-0.588
					c-0.758-0.389-1.321-0.837-1.69-1.343l-5.375-7.373l30.394-25.846h13.99v87.043h17.917v12.75h-55.134V3114.389z"/>
				<path style="fill:#FFFFFF;" d="M2969.428,3114.389h20.193v-58.098c0-2.249,0.069-4.617,0.207-7.098l-14.335,11.991
					c-0.598,0.507-1.205,0.851-1.825,1.035c-0.62,0.182-1.23,0.276-1.828,0.276c-0.92,0-1.757-0.197-2.514-0.588
					c-0.758-0.389-1.321-0.837-1.69-1.343l-5.375-7.373l30.394-25.846h13.99v87.043h17.917v12.75h-55.134V3114.389z"/>
				<path style="fill:#FFFFFF;" d="M3049.369,3114.389h20.193v-58.098c0-2.249,0.069-4.617,0.207-7.098l-14.335,11.991
					c-0.598,0.507-1.206,0.851-1.826,1.035c-0.62,0.182-1.23,0.276-1.827,0.276c-0.92,0-1.757-0.197-2.514-0.588
					c-0.758-0.389-1.321-0.837-1.69-1.343l-5.375-7.373l30.394-25.846h13.991v87.043h17.917v12.75h-55.133V3114.389z"/>
				<path style="fill:#FFFFFF;" d="M3129.313,3114.389h20.193v-58.098c0-2.249,0.069-4.617,0.207-7.098l-14.335,11.991
					c-0.598,0.507-1.206,0.851-1.826,1.035c-0.62,0.182-1.23,0.276-1.827,0.276c-0.92,0-1.757-0.197-2.514-0.588
					c-0.758-0.389-1.321-0.837-1.69-1.343l-5.375-7.373l30.394-25.846h13.991v87.043h17.917v12.75h-55.133V3114.389z"/>
			</g>
		</g>
		<g>
			<g>
				<g style="opacity:0.3;">
					
						<linearGradient id="SVGID_00000017518298640165917400000010130224621427020695_" gradientUnits="userSpaceOnUse" x1="2467.9031" y1="-558.2058" x2="2953.3909" y2="-558.2058" gradientTransform="matrix(0.5459 0.8378 -0.8378 0.5459 1025.9604 -1214.9153)">
						<stop  offset="0" style="stop-color:#B37CFF"/>
						<stop  offset="1" style="stop-color:#F895E7"/>
					</linearGradient>
					<path style="fill:url(#SVGID_00000017518298640165917400000010130224621427020695_);" d="M2685.863,661.185
						c-2.348-3.604-1.642-8.475,1.771-11.245c7.464-6.06,15.303-11.885,23.297-17.314c3.89-2.641,9.183-1.631,11.824,2.258
						c0.031,0.047,0.061,0.093,0.091,0.139c2.525,3.875,1.493,9.075-2.35,11.684c-7.596,5.157-15.041,10.691-22.132,16.447
						c-3.648,2.963-9.01,2.407-11.973-1.244C2686.199,661.677,2686.025,661.434,2685.863,661.185z M2748.285,621.167
						c-0.182-0.279-0.349-0.572-0.501-0.878c-2.086-4.212-0.362-9.319,3.85-11.405c8.653-4.283,17.575-8.239,26.517-11.757
						c4.375-1.721,9.297,0.419,11.039,4.803c1.72,4.375-0.434,9.316-4.805,11.035c-8.5,3.344-16.975,7.102-25.198,11.175
						C2755.28,626.075,2750.607,624.731,2748.285,621.167z M2817.965,595.887c-0.517-0.794-0.91-1.689-1.144-2.663
						c-1.094-4.571,1.722-9.166,6.293-10.262c9.369-2.247,18.954-4.114,28.487-5.548c4.649-0.696,8.979,2.508,9.683,7.15
						c0.699,4.648-2.503,8.984-7.151,9.683c-9.053,1.362-18.152,3.134-27.051,5.268
						C2823.487,600.378,2819.875,598.818,2817.965,595.887z M2891.564,586.822c-0.855-1.312-1.357-2.875-1.374-4.557
						c-0.047-4.7,3.728-8.548,8.427-8.594c9.642-0.092,19.403,0.23,29.013,0.958c4.682,0.36,8.193,4.445,7.843,9.131
						c-0.355,4.686-4.444,8.197-9.132,7.843c-9.125-0.692-18.397-1-27.559-0.909
						C2895.764,590.722,2893.099,589.177,2891.564,586.822z M2965.335,594.396c-1.199-1.84-1.689-4.14-1.185-6.454
						c0.998-4.595,5.531-7.509,10.124-6.509c9.398,2.043,18.843,4.517,28.066,7.356c4.494,1.379,7.018,6.141,5.633,10.636
						c-1.383,4.492-6.144,7.013-10.639,5.633c-8.767-2.7-17.743-5.051-26.675-6.993
						C2968.38,597.571,2966.515,596.207,2965.335,594.396z M3035.589,618.1c-1.553-2.383-1.878-5.489-0.585-8.255
						c1.99-4.259,7.054-6.098,11.313-4.11c8.728,4.077,17.392,8.58,25.745,13.385c4.076,2.346,5.478,7.548,3.133,11.623
						c-2.342,4.073-7.546,5.477-11.621,3.133c-7.938-4.565-16.167-8.844-24.461-12.718
						C3037.619,620.461,3036.426,619.385,3035.589,618.1z M3222.832,868.341c-0.644-0.988-1.09-2.123-1.279-3.363
						c-1.375-9.04-3.164-18.143-5.318-27.052c-1.104-4.568,1.704-9.168,6.271-10.271c4.569-1.106,9.168,1.702,10.273,6.272
						c2.269,9.383,4.154,18.969,5.604,28.489c0.707,4.648-2.488,8.988-7.135,9.695
						C3227.841,872.63,3224.598,871.051,3222.832,868.341z M3098.801,656.758c-1.927-2.958-1.874-6.932,0.416-9.874
						c2.887-3.711,8.235-4.378,11.944-1.492c7.604,5.916,15.043,12.235,22.111,18.782c3.432,3.209,3.657,8.579,0.461,12.029
						c-3.194,3.448-8.58,3.654-12.03,0.46c-6.711-6.219-13.775-12.219-20.995-17.837
						C3099.942,658.228,3099.303,657.528,3098.801,656.758z M3203.486,796.766c-0.307-0.471-0.573-0.977-0.788-1.52
						c-3.366-8.509-7.146-16.983-11.229-25.192c-2.092-4.21-0.378-9.319,3.83-11.412c4.209-2.091,9.335-0.392,11.412,3.83
						c4.295,8.637,8.273,17.556,11.816,26.508c1.729,4.371-0.412,9.318-4.782,11.047
						C3209.919,801.541,3205.65,800.086,3203.486,796.766z M3151.793,708.567c-2.345-3.599-1.645-8.462,1.759-11.235
						c3.644-2.97,9.004-2.423,11.977,1.219c6.08,7.461,11.919,15.284,17.352,23.256c0.035,0.048,0.069,0.1,0.102,0.15
						c2.521,3.869,1.495,9.061-2.337,11.675c-3.885,2.649-9.18,1.648-11.827-2.238c-5.163-7.57-10.711-15.001-16.488-22.089
						C3152.139,709.066,3151.958,708.819,3151.793,708.567z"/>
					
						<linearGradient id="SVGID_00000038371294543775606880000000653802321735476110_" gradientUnits="userSpaceOnUse" x1="2976.9919" y1="-686.0854" x2="3005.3462" y2="-686.0854" gradientTransform="matrix(0.5459 0.8378 -0.8378 0.5459 1025.9604 -1214.9153)">
						<stop  offset="0" style="stop-color:#B37CFF"/>
						<stop  offset="1" style="stop-color:#F895E7"/>
					</linearGradient>
					<path style="fill:url(#SVGID_00000038371294543775606880000000653802321735476110_);" d="M3226.439,927.997
						c-0.915-1.404-1.427-3.092-1.373-4.895c0.134-4.387,0.175-8.848,0.131-13.264c-0.05-4.699,3.721-8.551,8.42-8.599
						c4.7-0.051,8.558,3.719,8.599,8.422c0.05,4.644,0.004,9.336-0.135,13.952c-0.142,4.697-4.066,8.394-8.762,8.251
						C3230.422,931.778,3227.909,930.253,3226.439,927.997z"/>
				</g>
				<g style="opacity:0.3;">
					
						<linearGradient id="SVGID_00000010288746044015537300000007299952418647022747_" gradientUnits="userSpaceOnUse" x1="3124.1682" y1="-469.4247" x2="3143.6252" y2="-469.4247" gradientTransform="matrix(0.5459 0.8378 -0.8378 0.5459 1025.9604 -1214.9153)">
						<stop  offset="0" style="stop-color:#B37CFF"/>
						<stop  offset="1" style="stop-color:#F895E7"/>
					</linearGradient>
					<path style="fill:url(#SVGID_00000010288746044015537300000007299952418647022747_);" d="M3117.953,1163.718
						c-2.243-3.442-1.72-8.097,1.42-10.945c3.251-2.946,6.496-6.01,9.641-9.107c3.351-3.298,8.739-3.256,12.037,0.093
						c3.311,3.364,3.255,8.74-0.094,12.037c-3.312,3.259-6.729,6.488-10.151,9.591c-3.483,3.156-8.865,2.892-12.023-0.59
						C3118.473,1164.454,3118.198,1164.093,3117.953,1163.718z"/>
					
						<linearGradient id="SVGID_00000019642122593458377210000011671307238888836519_" gradientUnits="userSpaceOnUse" x1="2647.7205" y1="-248.1045" x2="3147.7847" y2="-248.1045" gradientTransform="matrix(0.5459 0.8378 -0.8378 0.5459 1025.9604 -1214.9153)">
						<stop  offset="0" style="stop-color:#B37CFF"/>
						<stop  offset="1" style="stop-color:#F895E7"/>
					</linearGradient>
					<path style="fill:url(#SVGID_00000019642122593458377210000011671307238888836519_);" d="M2617.59,1099.533
						c-2.138-3.281-4.228-6.611-6.271-9.989c-2.431-4.023-1.142-9.256,2.88-11.688c4.022-2.432,9.281-1.133,11.689,2.878
						c4.714,7.795,9.733,15.381,14.98,22.631c2.752,3.816,1.904,9.128-1.903,11.885c-3.81,2.758-9.132,1.905-11.887-1.903
						C2623.832,1108.863,2620.64,1104.215,2617.59,1099.533z M2590.751,1049.593c-0.26-0.398-0.49-0.825-0.685-1.277
						c-3.771-8.716-7.213-17.689-10.23-26.668c-1.498-4.454,0.9-9.281,5.354-10.778c4.457-1.497,9.298,0.902,10.78,5.357
						c2.867,8.528,6.139,17.051,9.719,25.335c1.866,4.313-0.119,9.323-4.431,11.188
						C2597.393,1054.42,2592.974,1053.004,2590.751,1049.593z M2655.794,1147.72c-2.191-3.362-1.754-7.91,1.25-10.786
						c3.397-3.251,8.784-3.133,12.036,0.262c6.217,6.496,12.798,12.814,19.564,18.777c3.521,3.114,3.864,8.488,0.756,12.013
						c-3.11,3.526-8.489,3.865-12.015,0.756c-7.124-6.28-14.055-12.935-20.603-19.775
						C2656.407,1148.576,2656.079,1148.157,2655.794,1147.72z M2569.332,979.823c-0.59-0.905-1.013-1.939-1.227-3.065
						c-1.761-9.322-3.145-18.833-4.113-28.266c-0.479-4.675,2.921-8.854,7.597-9.333c4.678-0.481,8.857,2.917,9.335,7.597
						c0.92,8.956,2.233,17.987,3.906,26.841c0.875,4.618-2.165,9.071-6.782,9.943C2574.558,984.2,2571.159,982.627,2569.332,979.823
						z M2711.743,1194.487c-1.797-2.758-1.899-6.433,0.036-9.353c2.597-3.918,7.879-4.989,11.798-2.392
						c7.49,4.966,15.3,9.681,23.211,14.016c4.122,2.258,5.635,7.431,3.374,11.555c-2.259,4.121-7.43,5.631-11.552,3.373
						c-8.33-4.562-16.552-9.526-24.439-14.755C2713.174,1196.269,2712.359,1195.432,2711.743,1194.487z M2776.602,1227.846
						c-1.437-2.205-1.834-5.043-0.824-7.689c1.678-4.391,6.598-6.591,10.989-4.913c8.422,3.217,17.077,6.117,25.723,8.619
						c4.518,1.3,7.119,6.018,5.812,10.54c-1.307,4.516-6.025,7.116-10.542,5.812c-9.1-2.633-18.208-5.685-27.069-9.071
						C2778.948,1230.479,2777.55,1229.301,2776.602,1227.846z M2847.19,1246.272c-1.093-1.677-1.601-3.742-1.287-5.879
						c0.68-4.65,5.004-7.868,9.655-7.186c8.928,1.309,18.006,2.257,26.987,2.813c4.69,0.291,8.259,4.325,7.967,9.023
						c-0.293,4.691-4.33,8.258-9.023,7.967c-9.45-0.588-19.007-1.583-28.4-2.96
						C2850.574,1249.681,2848.477,1248.247,2847.19,1246.272z M2920.112,1248.865c-0.757-1.162-1.24-2.524-1.351-4.004
						c-0.352-4.687,3.162-8.771,7.849-9.122c8.993-0.674,18.056-1.74,26.942-3.169c4.641-0.746,9.011,2.416,9.756,7.049
						c0.747,4.642-2.411,9.009-7.052,9.755c-9.36,1.506-18.906,2.629-28.372,3.339
						C2924.676,1252.952,2921.751,1251.381,2920.112,1248.865z M2991.851,1235.38c-0.426-0.653-0.767-1.377-1.006-2.16
						c-1.376-4.494,1.152-9.254,5.645-10.629c8.601-2.634,17.202-5.669,25.57-9.026c4.364-1.75,9.321,0.383,11.067,4.731
						c1.751,4.362-0.368,9.319-4.732,11.069c-8.808,3.533-17.864,6.73-26.919,9.501
						C2997.764,1240.003,2993.869,1238.478,2991.851,1235.38z M3058.83,1206.484c-0.095-0.146-0.186-0.297-0.274-0.451
						c-2.321-4.086-0.89-9.283,3.197-11.603c5.77-3.277,11.505-6.77,17.053-10.386c2.008-1.309,3.999-2.639,5.968-3.984
						c3.883-2.651,9.18-1.654,11.829,2.229c2.761,3.878,1.654,9.176-2.226,11.827c-2.073,1.416-4.164,2.812-6.278,4.19
						c-5.835,3.802-11.873,7.479-17.94,10.924C3066.227,1211.466,3061.267,1210.224,3058.83,1206.484z"/>
					
						<linearGradient id="SVGID_00000091728546083444266450000000578493366466675340_" gradientUnits="userSpaceOnUse" x1="2597.874" y1="-142.6947" x2="2625.8667" y2="-142.6947" gradientTransform="matrix(0.5459 0.8378 -0.8378 0.5459 1025.9604 -1214.9153)">
						<stop  offset="0" style="stop-color:#B37CFF"/>
						<stop  offset="1" style="stop-color:#F895E7"/>
					</linearGradient>
					<path style="fill:url(#SVGID_00000091728546083444266450000000578493366466675340_);" d="M2563.816,906.846
						c-0.924-1.418-1.435-3.122-1.373-4.939c0.162-4.605,0.424-9.294,0.78-13.936c0.358-4.688,4.449-8.197,9.135-7.837
						c4.687,0.36,8.197,4.444,7.837,9.135c-0.337,4.41-0.586,8.864-0.74,13.236c-0.163,4.695-4.104,8.371-8.803,8.207
						C2567.772,910.61,2565.277,909.089,2563.816,906.846z"/>
				</g>
				<g>
					
						<linearGradient id="SVGID_00000001655165791077276260000014832431319555125152_" gradientUnits="userSpaceOnUse" x1="3435.2971" y1="41.4378" x2="2719.4355" y2="1216.1843">
						<stop  offset="0" style="stop-color:#A737D5"/>
						<stop  offset="1" style="stop-color:#EF497A"/>
					</linearGradient>
					<path style="fill:url(#SVGID_00000001655165791077276260000014832431319555125152_);" d="M2652.796,862.575
						c-0.516,1.616,0.051,3.383,1.411,4.398l38.808,28.949c-1.779,22.54,0.022,45.526,5.699,68.091l-33.409,34.998
						c-1.173,1.228-1.436,3.063-0.658,4.571l26.639,51.604c0.779,1.508,2.429,2.356,4.107,2.112l47.88-6.967
						c15.109,17.697,32.803,32.479,52.208,44.082l1.123,48.403c0.04,1.696,1.151,3.181,2.767,3.697l55.326,17.653
						c1.618,0.516,3.384-0.051,4.398-1.411l28.949-38.807c22.54,1.78,45.527-0.023,68.092-5.7l34.998,33.41
						c1.227,1.172,3.063,1.436,4.571,0.657l51.604-26.64c1.508-0.778,2.356-2.428,2.111-4.107l-6.966-47.88
						c17.697-15.108,32.479-32.802,44.082-52.208l48.404-1.123c1.695-0.04,3.181-1.151,3.697-2.767l17.652-55.326
						c0.517-1.617-0.051-3.383-1.411-4.398l-38.808-28.948c1.78-22.54-0.022-45.526-5.699-68.091l33.411-34.998
						c1.171-1.227,1.436-3.063,0.658-4.571l-26.64-51.604c-0.778-1.508-2.427-2.356-4.107-2.112l-47.88,6.967
						c-15.107-17.697-32.802-32.479-52.208-44.082l-1.123-48.402c-0.039-1.697-1.151-3.182-2.768-3.698l-55.326-17.652
						c-1.616-0.516-3.383,0.051-4.398,1.411l-28.948,38.807c-22.54-1.78-45.527,0.023-68.092,5.7l-34.998-33.41
						c-1.226-1.172-3.063-1.436-4.571-0.656l-51.603,26.639c-1.508,0.779-2.356,2.428-2.112,4.107l6.967,47.88
						c-17.696,15.108-32.478,32.802-44.082,52.208l-48.403,1.124c-1.697,0.039-3.181,1.15-3.698,2.767L2652.796,862.575z"/>
					<path style="opacity:0.56;fill:#FFFFFF;" d="M2855.61,944.257c-15.535-23.841-11.669-56.183,10.273-75.577
						c24.12-21.318,61.081-19.037,82.399,5.08c10.331,11.682,15.486,26.69,14.526,42.249c-0.958,15.563-7.921,29.822-19.605,40.147
						c-24.12,21.318-61.081,19.037-82.398-5.079C2858.883,948.902,2857.15,946.62,2855.61,944.257z M2942.1,888.059
						c-1.2-1.841-2.54-3.605-4.021-5.282c-16.343-18.491-44.686-20.237-63.176-3.895c-18.492,16.345-20.25,44.686-3.896,63.178
						c16.343,18.491,44.686,20.237,63.176,3.895c8.959-7.919,14.297-18.849,15.033-30.783
						C2949.813,905.474,2947.31,896.055,2942.1,888.059z"/>
					<path style="opacity:0.56;fill:#FFFFFF;" d="M2785.622,991.286c-2.668-4.095-5.146-8.347-7.418-12.749l0,0
						c-0.716-1.385-1.408-2.783-2.08-4.191c-3.306-6.943-6.054-14.138-8.203-21.474c-0.029-0.1-0.059-0.2-0.088-0.3
						c-0.082-0.284-0.164-0.568-0.243-0.854c-0.158-0.553-0.31-1.109-0.461-1.664c-0.396-1.46,0.221-2.955,1.423-3.741
						c0.292-0.19,0.62-0.339,0.975-0.435c1.815-0.492,3.68,0.587,4.174,2.398c2.526,9.34,6.077,18.468,10.554,27.134
						c22.218,43.056,64.286,69.323,109.292,73.427c25.033,2.286,50.975-2.289,74.919-14.652c4.199-2.167,8.258-4.53,12.163-7.076
						c26.282-17.129,45.711-42.565,55.374-72.855c11.102-34.793,7.99-71.827-8.762-104.278
						c-34.605-67.017-117.223-93.357-184.211-58.776c-4.131,2.132-8.138,4.466-12.006,6.988
						c-16.764,10.928-30.951,25.402-41.491,42.434c-0.273,0.44-0.628,0.796-1.036,1.06c-1.07,0.697-2.492,0.761-3.65,0.043
						c-1.597-0.995-2.098-3.085-1.103-4.688c11.066-17.881,25.96-33.08,43.56-44.552c4.06-2.648,8.266-5.096,12.601-7.336
						c70.332-36.308,157.092-8.605,193.387,61.701c17.588,34.068,20.853,72.946,9.198,109.472
						c-10.144,31.799-30.542,58.501-58.132,76.485c-4.1,2.672-8.361,5.152-12.767,7.428c-34.071,17.587-72.948,20.855-109.474,9.201
						C2830.311,1039.292,2803.605,1018.885,2785.622,991.286z"/>
				</g>
			</g>
			<g>
				<g style="opacity:0.3;">
					
						<linearGradient id="SVGID_00000147201320720614257360000018246896075172412839_" gradientUnits="userSpaceOnUse" x1="2179.1135" y1="-153.843" x2="2192.9519" y2="-153.843" gradientTransform="matrix(0.5459 0.8378 -0.8378 0.5459 1025.9604 -1214.9153)">
						<stop  offset="0" style="stop-color:#B37CFF"/>
						<stop  offset="1" style="stop-color:#F895E7"/>
					</linearGradient>
					<path style="fill:url(#SVGID_00000147201320720614257360000018246896075172412839_);" d="M2339.379,540.29
						c-1.241-1.905-1.142-4.47,0.413-6.286c2.901-3.391,5.945-6.741,9.046-9.954c2.016-2.088,5.341-2.147,7.433-0.131
						c2.1,2.011,2.146,5.344,0.131,7.433c-2.956,3.062-5.857,6.255-8.626,9.49c-1.884,2.205-5.203,2.462-7.412,0.577
						C2339.975,541.081,2339.647,540.701,2339.379,540.29z"/>
					
						<linearGradient id="SVGID_00000039101873826204856220000000320661907434415773_" gradientUnits="userSpaceOnUse" x1="2173.5105" y1="-309.3064" x2="2444.7249" y2="-309.3064" gradientTransform="matrix(0.5459 0.8378 -0.8378 0.5459 1025.9604 -1214.9153)">
						<stop  offset="0" style="stop-color:#B37CFF"/>
						<stop  offset="1" style="stop-color:#F895E7"/>
					</linearGradient>
					<path style="fill:url(#SVGID_00000039101873826204856220000000320661907434415773_);" d="M2368.379,512.108
						c-1.455-2.232-1.011-5.248,1.105-6.954c5.979-4.827,12.275-9.402,18.709-13.594c1.355-0.883,2.724-1.753,4.106-2.614
						c2.469-1.532,5.701-0.587,7.244,1.686c1.533,2.466,0.777,5.706-1.685,7.241c-1.321,0.821-2.631,1.653-3.925,2.496
						c-6.138,3.999-12.142,8.362-17.845,12.963c-2.26,1.825-5.567,1.471-7.393-0.786
						C2368.583,512.401,2368.476,512.256,2368.379,512.108z M2414.73,483.284c-0.136-0.208-0.262-0.43-0.369-0.66
						c-1.221-2.636-0.077-5.762,2.556-6.984c8.448-3.924,17.216-7.357,26.053-10.203c2.765-0.892,5.726,0.644,6.615,3.392
						c0.889,2.766-0.627,5.724-3.391,6.615c-8.433,2.716-16.794,5.992-24.852,9.733
						C2418.943,486.289,2416.135,485.439,2414.73,483.284z M2466.687,466.561c-0.364-0.559-0.626-1.197-0.76-1.891
						c-0.541-2.852,1.338-5.602,4.19-6.143c9.138-1.727,18.487-2.904,27.781-3.488c2.901-0.184,5.391,2.011,5.576,4.917
						c0.183,2.895-2.019,5.393-4.914,5.576c-8.864,0.559-17.774,1.677-26.49,3.327
						C2469.913,469.265,2467.815,468.292,2466.687,466.561z M2521.167,463.123c-0.594-0.912-0.909-2.015-0.842-3.183
						c0.177-2.897,2.67-5.107,5.568-4.93c9.302,0.566,18.646,1.713,27.781,3.414c2.854,0.534,4.731,3.284,4.203,6.131
						c-0.53,2.854-3.273,4.737-6.131,4.206c-8.704-1.623-17.622-2.717-26.49-3.256
						C2523.526,465.4,2522.045,464.471,2521.167,463.123z M2574.832,473.095c-0.83-1.273-1.103-2.896-0.608-4.46
						c0.875-2.766,3.829-4.298,6.597-3.425c8.871,2.81,17.655,6.191,26.104,10.055c2.647,1.204,3.805,4.325,2.597,6.966
						c-1.208,2.641-4.329,3.804-6.966,2.596c-8.063-3.686-16.44-6.913-24.907-9.591
						C2576.444,474.854,2575.472,474.077,2574.832,473.095z M2624.445,495.786c-1.075-1.649-1.173-3.841-0.072-5.63
						c1.521-2.471,4.759-3.238,7.231-1.718c7.923,4.88,15.616,10.302,22.86,16.115c2.265,1.83,2.624,5.128,0.809,7.392
						c-1.815,2.264-5.126,2.626-7.388,0.81c-6.909-5.544-14.24-10.711-21.793-15.363
						C2625.406,496.971,2624.855,496.417,2624.445,495.786z M2666.992,529.911c-1.345-2.064-1.088-4.857,0.743-6.636
						c2.083-2.022,5.412-1.973,7.436,0.108c6.462,6.654,12.589,13.801,18.217,21.242c1.715,2.35,1.289,5.618-1.027,7.366
						c-2.315,1.751-5.611,1.291-7.364-1.023c-5.363-7.102-11.208-13.918-17.369-20.262
						C2667.385,530.458,2667.174,530.19,2666.992,529.911z M2712.108,597.927c-0.165-0.254-0.313-0.528-0.436-0.819
						c-2.997-7.054-6.433-14.067-10.214-20.847c-0.567-1.03-1.136-2.035-1.716-3.03c-1.454-2.514-0.602-5.729,1.911-7.185
						c2.515-1.464,5.812-0.634,7.186,1.907c0.614,1.064,1.222,2.13,1.816,3.21c3.948,7.084,7.55,14.436,10.692,21.834
						c1.135,2.673-0.109,5.757-2.782,6.892C2716.185,600.902,2713.474,600.024,2712.108,597.927z"/>
				</g>
				<g style="opacity:0.3;">
					
						<linearGradient id="SVGID_00000106144177015787107160000003359741391960535694_" gradientUnits="userSpaceOnUse" x1="2294.5537" y1="-49.3089" x2="2604.1052" y2="-49.3089" gradientTransform="matrix(0.5459 0.8378 -0.8378 0.5459 1025.9604 -1214.9153)">
						<stop  offset="0" style="stop-color:#B37CFF"/>
						<stop  offset="1" style="stop-color:#F895E7"/>
					</linearGradient>
					<path style="fill:url(#SVGID_00000106144177015787107160000003359741391960535694_);" d="M2323.803,808.2
						c-1.567-2.404-0.912-5.631,1.48-7.235c2.409-1.616,5.677-0.973,7.292,1.44c4.866,7.261,10.216,14.286,15.903,20.88
						c1.864,2.202,1.654,5.518-0.548,7.415c-2.201,1.897-5.519,1.648-7.416-0.548c-5.96-6.919-11.573-14.281-16.673-21.892
						C2323.83,808.241,2323.815,808.219,2323.803,808.2z M2310.199,785c-0.104-0.159-0.197-0.322-0.285-0.494
						c-4.151-8.156-7.846-16.649-10.987-25.239c-0.994-2.729,0.405-5.744,3.132-6.74c2.73-1.001,5.746,0.422,6.745,3.129
						c2.995,8.198,6.523,16.301,10.48,24.086c1.317,2.586,0.286,5.751-2.301,7.067C2314.563,788.039,2311.646,787.22,2310.199,785z
						 M2358.864,848.842c-1.272-1.953-1.128-4.59,0.511-6.399c1.946-2.148,5.27-2.313,7.422-0.363
						c6.484,5.87,13.374,11.395,20.491,16.42c2.368,1.689,2.935,4.956,1.257,7.327c-1.672,2.37-4.956,2.936-7.327,1.261
						c-7.458-5.269-14.684-11.063-21.477-17.218C2359.397,849.557,2359.104,849.212,2358.864,848.842z M2291.796,734.546
						c-0.326-0.501-0.573-1.066-0.717-1.683c-2.069-8.921-3.606-18.06-4.567-27.161c-0.307-2.888,1.788-5.475,4.676-5.782
						c2.879-0.301,5.469,1.792,5.779,4.675c0.919,8.678,2.385,17.389,4.356,25.896c0.654,2.828-1.107,5.654-3.935,6.308
						C2295.177,737.309,2292.968,736.344,2291.796,734.546z M2402.706,879.8c-1.016-1.559-1.171-3.612-0.229-5.362
						c1.376-2.561,4.564-3.517,7.12-2.143c7.681,4.134,15.696,7.839,23.828,11.01c2.71,1.056,4.042,4.106,2.985,6.811
						c-1.056,2.704-4.106,4.042-6.81,2.986c-8.524-3.33-16.93-7.213-24.985-11.544C2403.814,881.125,2403.17,880.512,2402.706,879.8
						z M2452.696,899.339c-0.778-1.193-1.07-2.695-0.689-4.18c0.723-2.812,3.588-4.507,6.4-3.784
						c8.471,2.176,17.146,3.858,25.781,4.999c2.882,0.38,4.906,3.025,4.524,5.9c-0.379,2.879-3.019,4.902-5.896,4.522
						c-9.056-1.195-18.15-2.955-27.026-5.236C2454.467,901.218,2453.389,900.401,2452.696,899.339z M2505.933,906.339
						c-0.546-0.839-0.862-1.84-0.848-2.918c0.026-2.903,2.405-5.234,5.309-5.206c8.742,0.091,17.566-0.359,26.225-1.335
						c2.88-0.32,5.486,1.753,5.809,4.637c0.324,2.886-1.749,5.487-4.637,5.812c-9.078,1.02-18.334,1.494-27.504,1.403
						C2508.459,908.713,2506.861,907.763,2505.933,906.339z"/>
					
						<linearGradient id="SVGID_00000134972101043451285860000016852355855563254164_" gradientUnits="userSpaceOnUse" x1="2260.5244" y1="-29.9427" x2="2281.6951" y2="-29.9427" gradientTransform="matrix(0.5459 0.8378 -0.8378 0.5459 1025.9604 -1214.9153)">
						<stop  offset="0" style="stop-color:#B37CFF"/>
						<stop  offset="1" style="stop-color:#F895E7"/>
					</linearGradient>
					<path style="fill:url(#SVGID_00000134972101043451285860000016852355855563254164_);" d="M2286.133,680.898
						c-0.553-0.85-0.867-1.867-0.849-2.958c0.077-4.499,0.29-9.015,0.626-13.425c0.223-2.893,2.749-5.063,5.644-4.842
						c2.888,0.229,5.057,2.749,4.842,5.644c-0.323,4.206-0.524,8.515-0.6,12.808c-0.05,2.903-2.447,5.215-5.348,5.164
						C2288.637,683.255,2287.054,682.311,2286.133,680.898z"/>
				</g>
				<g>
					
						<linearGradient id="SVGID_00000078744727616920216160000011119672356689449901_" gradientUnits="userSpaceOnUse" x1="3047.5095" y1="-194.8727" x2="2331.6477" y2="979.874">
						<stop  offset="0" style="stop-color:#A737D5"/>
						<stop  offset="1" style="stop-color:#EF497A"/>
					</linearGradient>
					<path style="fill:url(#SVGID_00000078744727616920216160000011119672356689449901_);" d="M2345.416,647.485
						c-0.345,1.081,0.034,2.264,0.944,2.942l25.969,19.371c-1.191,15.082,0.015,30.464,3.813,45.564l-22.356,23.419
						c-0.784,0.821-0.961,2.05-0.44,3.059l17.825,34.531c0.521,1.009,1.625,1.576,2.749,1.413l32.039-4.662
						c10.11,11.842,21.95,21.733,34.935,29.498l0.751,32.389c0.027,1.135,0.771,2.129,1.853,2.474l37.021,11.812
						c1.083,0.345,2.264-0.034,2.943-0.944l19.371-25.968c15.083,1.191,30.464-0.015,45.564-3.814l23.419,22.357
						c0.822,0.784,2.05,0.961,3.059,0.44l34.531-17.826c1.01-0.521,1.577-1.625,1.413-2.748l-4.662-32.039
						c11.842-10.109,21.733-21.95,29.497-34.935l32.39-0.752c1.135-0.027,2.128-0.77,2.473-1.851l11.812-37.022
						c0.346-1.082-0.034-2.263-0.944-2.942l-25.969-19.371c1.192-15.083-0.015-30.464-3.813-45.564l22.357-23.419
						c0.784-0.821,0.961-2.049,0.44-3.059l-17.826-34.531c-0.521-1.009-1.625-1.576-2.748-1.413l-32.039,4.662
						c-10.109-11.842-21.95-21.734-34.936-29.498l-0.752-32.388c-0.026-1.136-0.77-2.13-1.852-2.474l-37.021-11.812
						c-1.082-0.345-2.264,0.034-2.943,0.944l-19.371,25.968c-15.083-1.191-30.464,0.016-45.564,3.814l-23.419-22.357
						c-0.821-0.784-2.05-0.961-3.059-0.439l-34.531,17.825c-1.009,0.521-1.577,1.625-1.413,2.749l4.662,32.039
						c-11.841,10.109-21.733,21.949-29.498,34.935l-32.389,0.752c-1.135,0.026-2.128,0.77-2.474,1.852L2345.416,647.485z"/>
					<path style="opacity:0.56;fill:#FFFFFF;" d="M2480.508,702.479c-4.63-7.105-6.853-15.472-6.322-24.09
						c0.654-10.6,5.398-20.312,13.357-27.346c16.422-14.518,41.598-12.967,56.124,3.458c14.51,16.476,12.966,41.611-3.461,56.129
						c-7.958,7.036-18.18,10.55-28.779,9.895c-10.602-0.652-20.316-5.395-27.349-13.357
						C2482.765,705.68,2481.572,704.112,2480.508,702.479z M2538.391,664.882c-0.772-1.185-1.639-2.327-2.601-3.419
						c-10.684-12.081-29.203-13.222-41.287-2.541c-5.851,5.173-9.345,12.318-9.823,20.113c-0.48,7.801,2.11,15.313,7.277,21.174l0,0
						c5.174,5.853,12.32,9.344,20.115,9.825c7.801,0.48,15.319-2.105,21.174-7.281
						C2544.237,693.038,2546.175,676.828,2538.391,664.882z"/>
					<path style="opacity:0.56;fill:#FFFFFF;" d="M2431.75,735.151c-1.816-2.787-3.504-5.688-5.064-8.703
						c-3.094-5.989-5.582-12.3-7.398-18.772c-0.079-0.291-0.159-0.583-0.239-0.874c-0.612-2.255,0.341-4.563,2.198-5.776
						c0.451-0.294,0.958-0.523,1.505-0.671c2.802-0.759,5.678,0.908,6.444,3.702c1.638,6.059,3.938,11.968,6.831,17.564l0.001,0.002
						c0.158,0.307,0.321,0.614,0.482,0.918c6.967,13.184,16.956,24.131,29.055,32.169c6.568,4.362,13.765,7.865,21.447,10.393
						c0.063,0.021,0.125,0.041,0.187,0.062c0.193,0.061,0.382,0.125,0.573,0.184c22.524,7.185,46.499,5.172,67.507-5.674
						c2.72-1.402,5.345-2.931,7.874-4.579c17.014-11.089,29.591-27.557,35.85-47.167c7.185-22.525,5.167-46.497-5.677-67.503
						c-10.846-20.99-29.223-36.535-51.745-43.725c-22.524-7.185-46.499-5.172-67.507,5.674c-2.674,1.378-5.268,2.89-7.771,4.521
						c-10.855,7.076-20.038,16.445-26.86,27.47c-0.421,0.679-0.969,1.23-1.599,1.637c-1.652,1.076-3.849,1.175-5.636,0.067
						c-2.464-1.535-3.234-4.765-1.702-7.239c7.635-12.336,17.91-22.822,30.049-30.738c2.804-1.827,5.704-3.518,8.694-5.061
						c23.507-12.134,50.328-14.388,75.531-6.347c25.197,8.042,45.766,25.391,57.889,48.915
						c12.135,23.504,14.391,50.323,6.346,75.525c-6.997,21.939-21.07,40.361-40.105,52.768c-2.826,1.841-5.766,3.555-8.805,5.124
						C2514.598,792.504,2459.128,777.168,2431.75,735.151z"/>
				</g>
			</g>
		</g>
	</g>
</g>
</svg>
